<svg width="389" height="343" viewBox="0 0 389 343" fill="none" xmlns="http://www.w3.org/2000/svg">
<path d="M50.1287 36.2558L283.308 34.5593C284.711 34.5489 285.854 35.6842 285.854 37.0872V192.444C285.854 193.857 284.695 194.995 283.282 194.972L161.432 192.857C161.108 192.852 160.788 192.909 160.484 193.023L88.419 220.614C86.7796 221.243 85.0129 220.048 84.9895 218.292L84.644 194.53C84.6232 193.127 83.4645 192.01 82.0615 192.041L48.2139 192.794C46.7746 192.826 45.6003 191.654 45.6315 190.215C46.0394 171.392 48.4556 57.6639 47.619 38.9006C47.554 37.4691 48.692 36.2714 50.1261 36.261L50.1287 36.2558Z" fill="white" stroke="#010101" stroke-width="1.81865" stroke-miterlimit="10"/>
<path d="M340.483 148.536L204.084 147.544C203.24 147.539 202.554 148.219 202.554 149.064V239.913C202.554 240.762 203.25 241.446 204.1 241.433L275.37 240.196C275.565 240.193 275.757 240.227 275.939 240.297L318.056 256.423C319.043 256.8 320.103 256.083 320.119 255.026L320.319 241.217C320.332 240.373 321.028 239.702 321.873 239.72L341.6 240.16C342.465 240.178 343.172 239.474 343.153 238.608C342.912 227.481 341.506 161.204 341.989 150.124C342.026 149.264 341.343 148.547 340.483 148.541V148.536Z" fill="#67DC7A"/>
<path d="M157.533 240.892L72.5707 240.274C71.8744 240.269 71.3054 240.833 71.3054 241.529V297.917C71.3054 298.619 71.8796 299.185 72.5811 299.172L116.93 298.403C117.091 298.401 117.25 298.429 117.4 298.486L143.368 308.429C144.184 308.741 145.059 308.148 145.072 307.276L145.187 299.346C145.197 298.65 145.774 298.094 146.47 298.11L158.229 298.372C158.943 298.388 159.528 297.806 159.512 297.091C159.346 289.37 158.512 249.871 158.777 242.197C158.8 241.49 158.239 240.9 157.533 240.895V240.892Z" stroke="#5109C9" stroke-width="1.81865" stroke-miterlimit="10"/>
<path d="M93.8071 277.273C97.1518 277.273 99.8632 274.562 99.8632 271.217C99.8632 267.872 97.1518 265.161 93.8071 265.161C90.4624 265.161 87.751 267.872 87.751 271.217C87.751 274.562 90.4624 277.273 93.8071 277.273Z" fill="#5109C9"/>
<path d="M115.028 277.273C118.372 277.273 121.084 274.562 121.084 271.217C121.084 267.872 118.372 265.161 115.028 265.161C111.683 265.161 108.971 267.872 108.971 271.217C108.971 274.562 111.683 277.273 115.028 277.273Z" fill="#5109C9"/>
<path d="M133.166 277.273C136.511 277.273 139.222 274.562 139.222 271.217C139.222 267.872 136.511 265.161 133.166 265.161C129.821 265.161 127.11 267.872 127.11 271.217C127.11 274.562 129.821 277.273 133.166 277.273Z" fill="#5109C9"/>
<path d="M243.622 206.257C248.478 206.257 252.414 202.321 252.414 197.466C252.414 192.61 248.478 188.674 243.622 188.674C238.767 188.674 234.83 192.61 234.83 197.466C234.83 202.321 238.767 206.257 243.622 206.257Z" fill="#262626"/>
<path d="M272.188 206.257C277.044 206.257 280.98 202.321 280.98 197.466C280.98 192.61 277.044 188.674 272.188 188.674C267.333 188.674 263.396 192.61 263.396 197.466C263.396 202.321 267.333 206.257 272.188 206.257Z" fill="#262626"/>
<path d="M300.757 206.257C305.612 206.257 309.549 202.321 309.549 197.466C309.549 192.61 305.612 188.674 300.757 188.674C295.901 188.674 291.965 192.61 291.965 197.466C291.965 202.321 295.901 206.257 300.757 206.257Z" fill="#262626"/>
<path d="M190.801 66.4998C197.87 72.9949 201.408 81.6907 201.408 92.5869C201.408 104.761 197.639 113.777 190.104 119.63C182.567 125.486 172.365 128.412 159.497 128.412L158.974 144.933H145.236L144.539 117.456H149.582C161.061 117.456 170.045 115.718 176.537 112.239C183.03 108.76 186.277 102.213 186.277 92.5869C186.277 85.6293 184.191 80.124 180.016 76.0659C175.844 72.0077 170.219 69.9786 163.147 69.9786C156.075 69.9786 150.305 71.922 146.192 75.8035C142.076 79.6902 140.019 84.9928 140.019 91.7166H125.062C125.062 84.759 126.626 78.6457 129.756 73.3691C132.887 68.095 137.322 64.0082 143.061 61.1088C148.8 58.212 155.436 56.7596 162.973 56.7596C174.451 56.7596 183.726 60.0072 190.798 66.4998H190.801ZM144.368 177.453C142.282 175.366 141.237 172.818 141.237 169.801C141.237 166.785 142.282 164.236 144.368 162.15C146.454 160.064 149.003 159.019 152.019 159.019C155.036 159.019 157.382 160.064 159.411 162.15C161.437 164.236 162.453 166.788 162.453 169.801C162.453 172.815 161.437 175.366 159.411 177.453C157.382 179.539 154.916 180.583 152.019 180.583C149.122 180.583 146.454 179.539 144.368 177.453Z" fill="#5109C9"/>
</svg>
