<svg width="341" height="302" viewBox="0 0 341 302" fill="none" xmlns="http://www.w3.org/2000/svg">
<path d="M269.464 45.0067C270.405 45.7477 270.955 46.8799 270.955 48.0783V219.689C270.955 221.847 269.205 223.597 267.047 223.597H125.202C123.043 223.597 121.293 221.847 121.293 219.689V27.4954C121.293 25.3368 123.043 23.5869 125.202 23.5869H240.888C241.765 23.5869 242.616 23.8817 243.305 24.4238L269.464 45.0067Z" fill="white" stroke="#5109C9" stroke-width="1.56338" stroke-miterlimit="10"/>
<path d="M271.179 46.4913C271.179 46.5052 271.103 46.5192 270.954 46.5308C269.039 46.6903 255.372 46.6634 247.565 46.6341C244.555 46.6229 242.132 44.1784 242.132 41.1684V23.5869H242.241L270.954 46.1803L271.177 46.3567V46.4936L271.179 46.4913Z" fill="#5109C9"/>
<path d="M160.101 81.5384C169.715 81.5384 177.509 73.7443 177.509 64.1297C177.509 54.5152 169.715 46.7211 160.101 46.7211C150.486 46.7211 142.692 54.5152 142.692 64.1297C142.692 73.7443 150.486 81.5384 160.101 81.5384Z" fill="white"/>
<path d="M156.015 65.109H150.106C149.913 65.109 149.756 64.952 149.756 64.7589V63.5648C149.756 62.7174 150.443 62.0304 151.291 62.0304H152.171V61.6737C151.611 61.291 151.258 60.5647 151.258 59.7664C151.258 58.5591 152.066 57.5743 153.057 57.5743C154.049 57.5743 154.857 58.5558 154.857 59.7664C154.857 60.5647 154.507 61.2877 153.944 61.6737V62.0304H154.824C155.671 62.0304 156.358 62.7174 156.358 63.5648V64.7589C156.358 64.952 156.201 65.109 156.008 65.109H156.015ZM150.453 64.4121H155.665V63.568C155.665 63.1067 155.289 62.7305 154.827 62.7305H153.597C153.404 62.7305 153.247 62.5735 153.247 62.3804V61.4774C153.247 61.3466 153.319 61.2255 153.437 61.1666C153.869 60.9474 154.156 60.3847 154.156 59.7664C154.156 58.9419 153.662 58.2712 153.057 58.2712C152.452 58.2712 151.958 58.9419 151.958 59.7664C151.958 60.3847 152.249 60.9474 152.678 61.1666C152.795 61.2255 152.867 61.3466 152.867 61.4774V62.3804C152.867 62.5735 152.71 62.7305 152.517 62.7305H151.287C150.826 62.7305 150.45 63.1067 150.45 63.568V64.4121H150.453Z" fill="#5109C9"/>
<path d="M156.015 73.4354H150.106C149.913 73.4354 149.756 73.2784 149.756 73.0853V71.8912C149.756 71.0438 150.443 70.3568 151.291 70.3568H152.171V70.0002C151.611 69.6174 151.258 68.8911 151.258 68.0928C151.258 66.8855 152.066 65.9008 153.057 65.9008C154.049 65.9008 154.857 66.8823 154.857 68.0928C154.857 68.8911 154.507 69.6141 153.944 70.0002V70.3568H154.824C155.671 70.3568 156.358 71.0438 156.358 71.8912V73.0853C156.358 73.2784 156.201 73.4354 156.008 73.4354H156.015ZM150.453 72.7386H155.665V71.8945C155.665 71.4331 155.289 71.0569 154.827 71.0569H153.597C153.404 71.0569 153.247 70.8999 153.247 70.7068V69.8039C153.247 69.673 153.319 69.5519 153.437 69.493C153.869 69.2738 154.156 68.7111 154.156 68.0928C154.156 67.2683 153.662 66.5976 153.057 66.5976C152.452 66.5976 151.958 67.2683 151.958 68.0928C151.958 68.7111 152.249 69.2738 152.678 69.493C152.795 69.5519 152.867 69.673 152.867 69.8039V70.7068C152.867 70.8999 152.71 71.0569 152.517 71.0569H151.287C150.826 71.0569 150.45 71.4331 150.45 71.8945V72.7386H150.453Z" fill="#5109C9"/>
<path d="M150.25 54.3189C150.204 54.3189 150.158 54.3091 150.116 54.2927C150.073 54.2731 150.034 54.2502 150.001 54.2175C149.936 54.1521 149.9 54.0637 149.9 53.9721C149.9 53.8805 149.936 53.7922 150.001 53.7267C150.017 53.7104 150.037 53.6973 150.053 53.6842C150.073 53.6711 150.093 53.6613 150.112 53.6515C150.132 53.6417 150.158 53.6351 150.178 53.6319C150.224 53.6221 150.269 53.6221 150.315 53.6319C150.335 53.6351 150.358 53.645 150.381 53.6515C150.4 53.6613 150.423 53.6711 150.443 53.6842C150.462 53.6973 150.479 53.7104 150.495 53.7267C150.561 53.7922 150.597 53.8838 150.597 53.9721C150.597 54.0605 150.561 54.1521 150.495 54.2175C150.462 54.2535 150.426 54.2764 150.384 54.2927C150.341 54.3091 150.296 54.3189 150.25 54.3189Z" fill="#5109C9"/>
<path d="M153.126 53.9688C153.126 53.7758 153.283 53.6188 153.476 53.6188C153.666 53.6188 153.826 53.7758 153.826 53.9688C153.826 54.1619 153.669 54.3189 153.476 54.3189C153.283 54.3189 153.126 54.1619 153.126 53.9688Z" fill="#5109C9"/>
<path d="M156.698 54.3188C156.652 54.3188 156.606 54.309 156.564 54.2927C156.521 54.273 156.482 54.2501 156.449 54.2174C156.384 54.152 156.348 54.0636 156.348 53.972C156.348 53.9524 156.348 53.9295 156.354 53.9033C156.357 53.8804 156.367 53.8608 156.374 53.8379C156.384 53.8183 156.393 53.7954 156.407 53.7757C156.42 53.7561 156.436 53.7398 156.452 53.7234C156.583 53.5925 156.816 53.5925 156.946 53.7234C156.963 53.7398 156.976 53.7594 156.992 53.7757C157.005 53.7954 157.015 53.815 157.025 53.8379C157.031 53.8575 157.038 53.8804 157.045 53.9033C157.048 53.9262 157.051 53.9491 157.051 53.972C157.051 54.0636 157.015 54.152 156.95 54.2174C156.917 54.2534 156.881 54.2763 156.835 54.2927C156.793 54.309 156.75 54.3188 156.701 54.3188H156.698Z" fill="#5109C9"/>
<path d="M171.402 56.21H147.79C147.597 56.21 147.44 56.0529 147.44 55.8599V52.0779C147.44 51.8848 147.597 51.7278 147.79 51.7278H171.402C171.595 51.7278 171.752 51.8848 171.752 52.0779V55.8599C171.752 56.0529 171.595 56.21 171.402 56.21ZM148.14 55.5131H171.052V52.4279H148.14V55.5131Z" fill="#5109C9"/>
<path d="M171.402 76.0757H147.79C147.597 76.0757 147.44 75.9187 147.44 75.7257V55.8601C147.44 55.6671 147.597 55.51 147.79 55.51H171.402C171.595 55.51 171.752 55.6671 171.752 55.8601V75.7257C171.752 75.9187 171.595 76.0757 171.402 76.0757ZM148.14 75.3789H171.052V56.2101H148.14V75.3789Z" fill="#5109C9"/>
<path d="M169.225 60.3095H157.133C156.94 60.3095 156.783 60.1525 156.783 59.9594V58.3269C156.783 58.1338 156.94 57.9768 157.133 57.9768H169.225C169.418 57.9768 169.575 58.1338 169.575 58.3269V59.9594C169.575 60.1525 169.418 60.3095 169.225 60.3095ZM157.483 59.6126H168.878V58.6802H157.483V59.6126Z" fill="#5109C9"/>
<path d="M169.225 69.5225H157.133C156.94 69.5225 156.783 69.3655 156.783 69.1725V67.5399C156.783 67.3469 156.94 67.1898 157.133 67.1898H169.225C169.418 67.1898 169.575 67.3469 169.575 67.5399V69.1725C169.575 69.3655 169.418 69.5225 169.225 69.5225ZM157.483 68.8257H168.878V67.8932H157.483V68.8257Z" fill="#5109C9"/>
<path d="M169.225 62.0925H157.133C156.94 62.0925 156.783 61.9354 156.783 61.7424C156.783 61.5494 156.94 61.3923 157.133 61.3923H169.225C169.418 61.3923 169.575 61.5494 169.575 61.7424C169.575 61.9354 169.418 62.0925 169.225 62.0925Z" fill="#5109C9"/>
<path d="M169.225 63.9246H157.133C156.94 63.9246 156.783 63.7676 156.783 63.5746C156.783 63.3815 156.94 63.2245 157.133 63.2245H169.225C169.418 63.2245 169.575 63.3815 169.575 63.5746C169.575 63.7676 169.418 63.9246 169.225 63.9246Z" fill="#5109C9"/>
<path d="M169.225 71.3088H157.133C156.94 71.3088 156.783 71.1517 156.783 70.9587C156.783 70.7657 156.94 70.6086 157.133 70.6086H169.225C169.418 70.6086 169.575 70.7657 169.575 70.9587C169.575 71.1517 169.418 71.3088 169.225 71.3088Z" fill="#5109C9"/>
<path d="M169.225 73.1376H157.133C156.94 73.1376 156.783 72.9806 156.783 72.7876C156.783 72.5945 156.94 72.4375 157.133 72.4375H169.225C169.418 72.4375 169.575 72.5945 169.575 72.7876C169.575 72.9806 169.418 73.1376 169.225 73.1376Z" fill="#5109C9"/>
<path d="M224.167 53.4004H187.447C185.632 53.4004 184.161 54.8712 184.161 56.6855C184.161 58.4999 185.632 59.9707 187.447 59.9707H224.167C225.981 59.9707 227.452 58.4999 227.452 56.6855C227.452 54.8712 225.981 53.4004 224.167 53.4004Z" fill="#67DC7A"/>
<path opacity="0.6" d="M225.008 63.0645H186.605C185.256 63.0645 184.161 64.1586 184.161 65.5083C184.161 66.858 185.256 67.9521 186.605 67.9521H225.008C226.358 67.9521 227.452 66.858 227.452 65.5083C227.452 64.1586 226.358 63.0645 225.008 63.0645Z" fill="#E5E5E5"/>
<path opacity="0.6" d="M240.758 71.3151H186.541C185.191 71.3151 184.097 72.4092 184.097 73.7589C184.097 75.1086 185.191 76.2028 186.541 76.2028H240.758C242.108 76.2028 243.202 75.1086 243.202 73.7589C243.202 72.4092 242.108 71.3151 240.758 71.3151Z" fill="#E5E5E5"/>
<path opacity="0.6" d="M254.049 90.441H146.789C145.44 90.441 144.345 91.5352 144.345 92.8849C144.345 94.2346 145.44 95.3287 146.789 95.3287H254.049C255.399 95.3287 256.493 94.2346 256.493 92.8849C256.493 91.5352 255.399 90.441 254.049 90.441Z" fill="#E5E5E5"/>
<path opacity="0.6" d="M187.688 103.788H147.346C145.619 103.788 144.219 105.188 144.219 106.915V201.423C144.219 203.15 145.619 204.55 147.346 204.55H187.688C189.414 204.55 190.814 203.15 190.814 201.423V106.915C190.814 105.188 189.414 103.788 187.688 103.788Z" fill="#E5E5E5"/>
<path d="M148.222 109.573H161.511" stroke="#1E1E1E" stroke-opacity="0.1" stroke-width="1.56338" stroke-miterlimit="10" stroke-linecap="round"/>
<path d="M148.222 112.7H167.764" stroke="#1E1E1E" stroke-opacity="0.1" stroke-width="1.56338" stroke-miterlimit="10" stroke-linecap="round"/>
<path opacity="0.6" d="M249.325 103.788H197.068C195.341 103.788 193.941 105.188 193.941 106.915V201.423C193.941 203.15 195.341 204.55 197.068 204.55H249.325C251.052 204.55 252.452 203.15 252.452 201.423V106.915C252.452 105.188 251.052 103.788 249.325 103.788Z" fill="#E5E5E5"/>
<path opacity="0.6" d="M240.716 63.0645H231.813C230.464 63.0645 229.37 64.1586 229.37 65.5083C229.37 66.858 230.464 67.9521 231.813 67.9521H240.716C242.066 67.9521 243.16 66.858 243.16 65.5083C243.16 64.1586 242.066 63.0645 240.716 63.0645Z" fill="#E5E5E5"/>
<path d="M131.296 163.123H107.939V172.71H131.296V163.123Z" fill="white"/>
<path d="M119.083 277.87C146.594 277.87 168.896 255.885 168.896 228.766C168.896 201.646 146.594 179.661 119.083 179.661C91.5727 179.661 69.271 201.646 69.271 228.766C69.271 255.885 91.5727 277.87 119.083 277.87Z" fill="white"/>
<path d="M119.265 270.195C96.4978 270.195 77.9751 251.673 77.9751 228.905C77.9751 206.138 96.4978 187.615 119.265 187.615C142.033 187.615 160.555 206.138 160.555 228.905C160.555 251.673 142.033 270.195 119.265 270.195ZM119.265 191.287C98.5238 191.287 81.6467 208.161 81.6467 228.905C81.6467 249.649 98.5215 266.524 119.265 266.524C140.009 266.524 156.884 249.649 156.884 228.905C156.884 208.161 140.009 191.287 119.265 191.287Z" fill="#5109C9"/>
<path d="M119.265 278.805C91.7488 278.805 69.3643 256.421 69.3643 228.905C69.3643 201.389 91.7488 179.005 119.265 179.005C146.781 179.005 169.165 201.389 169.165 228.905C169.165 256.421 146.781 278.805 119.265 278.805ZM119.265 182.676C93.7749 182.676 73.0382 203.415 73.0382 228.905C73.0382 254.395 93.7772 275.134 119.265 275.134C144.752 275.134 165.494 254.395 165.494 228.905C165.494 203.415 144.755 182.676 119.265 182.676Z" fill="#5109C9"/>
<path d="M130.226 174.549H108.303C107.289 174.549 106.467 173.727 106.467 172.713V163.501C106.467 162.487 107.289 161.666 108.303 161.666H130.226C131.24 161.666 132.061 162.487 132.061 163.501V172.713C132.061 173.727 131.24 174.549 130.226 174.549ZM110.139 170.877H128.39V165.337H110.139V170.877Z" fill="#5109C9"/>
<path d="M123.897 182.676H114.634C113.62 182.676 112.798 181.855 112.798 180.84V172.713C112.798 171.699 113.62 170.877 114.634 170.877H123.897C124.911 170.877 125.732 171.699 125.732 172.713V180.84C125.732 181.855 124.911 182.676 123.897 182.676ZM116.47 179.002H122.061V174.549H116.47V179.002Z" fill="#5109C9"/>
<path d="M84.6378 197.406C84.1667 197.406 83.6979 197.228 83.3382 196.868L75.9788 189.509C75.2616 188.792 75.2616 187.629 75.9788 186.912C76.6959 186.194 77.8587 186.194 78.5758 186.912L85.9352 194.271C86.6523 194.988 86.6523 196.151 85.9352 196.868C85.5778 197.228 85.1067 197.406 84.6378 197.406Z" fill="#5109C9"/>
<path d="M73.604 193.733C73.1352 193.733 72.6641 193.554 72.3067 193.194C71.5895 192.477 71.5895 191.314 72.3067 190.597L79.666 183.238C80.3832 182.521 81.5459 182.521 82.2631 183.238C82.9802 183.955 82.9802 185.118 82.2631 185.835L74.9037 193.194C74.5463 193.552 74.0751 193.733 73.604 193.733Z" fill="#5109C9"/>
<path d="M153.94 197.407C153.469 197.407 153 197.228 152.641 196.868C151.923 196.151 151.923 194.988 152.641 194.271L160 186.912C160.717 186.195 161.88 186.195 162.597 186.912C163.314 187.629 163.314 188.792 162.597 189.509L155.238 196.868C154.878 197.228 154.409 197.407 153.94 197.407Z" fill="#5109C9"/>
<path d="M164.972 193.733C164.503 193.733 164.032 193.554 163.675 193.194L156.315 185.835C155.598 185.118 155.598 183.955 156.315 183.238C157.033 182.521 158.195 182.521 158.912 183.238L166.272 190.597C166.989 191.314 166.989 192.477 166.272 193.194C165.912 193.552 165.443 193.733 164.972 193.733Z" fill="#5109C9"/>
<path d="M95.3721 223.773H93.0973L92.7065 224.883H91.7763L93.7227 219.442H94.7545L96.7009 224.883H95.7629L95.3721 223.773ZM95.1219 223.046L94.2386 220.521L93.3475 223.046H95.1219ZM101.448 220.576V224.883H100.557V224.375C100.416 224.552 100.231 224.693 100.002 224.797C99.7777 224.896 99.5379 224.945 99.2826 224.945C98.9438 224.945 98.639 224.875 98.368 224.734C98.1022 224.594 97.8912 224.385 97.7348 224.109C97.5837 223.833 97.5081 223.499 97.5081 223.108V220.576H98.3915V222.976C98.3915 223.361 98.4879 223.658 98.6807 223.867C98.8735 224.07 99.1367 224.172 99.4702 224.172C99.8037 224.172 100.067 224.07 100.26 223.867C100.458 223.658 100.557 223.361 100.557 222.976V220.576H101.448ZM103.663 221.303V223.687C103.663 223.848 103.7 223.966 103.773 224.039C103.851 224.106 103.981 224.14 104.164 224.14H104.711V224.883H104.007C103.606 224.883 103.298 224.789 103.085 224.602C102.871 224.414 102.764 224.109 102.764 223.687V221.303H102.256V220.576H102.764V219.505H103.663V220.576H104.711V221.303H103.663ZM107.4 224.953C106.994 224.953 106.626 224.862 106.298 224.68C105.97 224.492 105.712 224.232 105.524 223.898C105.337 223.559 105.243 223.168 105.243 222.725C105.243 222.288 105.339 221.899 105.532 221.561C105.725 221.222 105.988 220.961 106.322 220.779C106.655 220.597 107.028 220.505 107.439 220.505C107.851 220.505 108.224 220.597 108.557 220.779C108.891 220.961 109.154 221.222 109.347 221.561C109.54 221.899 109.636 222.288 109.636 222.725C109.636 223.163 109.537 223.551 109.339 223.89C109.141 224.229 108.87 224.492 108.526 224.68C108.187 224.862 107.812 224.953 107.4 224.953ZM107.4 224.179C107.63 224.179 107.843 224.125 108.041 224.015C108.245 223.906 108.409 223.742 108.534 223.523C108.659 223.304 108.721 223.038 108.721 222.725C108.721 222.413 108.661 222.15 108.542 221.936C108.422 221.717 108.263 221.553 108.065 221.443C107.867 221.334 107.653 221.279 107.424 221.279C107.194 221.279 106.981 221.334 106.783 221.443C106.59 221.553 106.436 221.717 106.322 221.936C106.207 222.15 106.15 222.413 106.15 222.725C106.15 223.189 106.267 223.549 106.501 223.804C106.741 224.054 107.041 224.179 107.4 224.179ZM115.731 220.505C116.069 220.505 116.372 220.576 116.638 220.717C116.909 220.857 117.12 221.066 117.271 221.342C117.427 221.618 117.505 221.952 117.505 222.342V224.883H116.622V222.475C116.622 222.09 116.525 221.795 116.333 221.592C116.14 221.384 115.877 221.279 115.543 221.279C115.21 221.279 114.944 221.384 114.746 221.592C114.553 221.795 114.457 222.09 114.457 222.475V224.883H113.573V222.475C113.573 222.09 113.477 221.795 113.284 221.592C113.091 221.384 112.828 221.279 112.495 221.279C112.161 221.279 111.895 221.384 111.697 221.592C111.504 221.795 111.408 222.09 111.408 222.475V224.883H110.517V220.576H111.408V221.068C111.554 220.891 111.739 220.753 111.963 220.654C112.187 220.555 112.427 220.505 112.682 220.505C113.026 220.505 113.334 220.578 113.605 220.724C113.876 220.87 114.084 221.081 114.23 221.358C114.36 221.097 114.563 220.891 114.84 220.74C115.116 220.584 115.413 220.505 115.731 220.505ZM118.342 222.71C118.342 222.277 118.431 221.894 118.608 221.561C118.79 221.227 119.035 220.969 119.343 220.787C119.655 220.599 119.999 220.505 120.374 220.505C120.713 220.505 121.008 220.573 121.258 220.709C121.513 220.839 121.716 221.003 121.868 221.201V220.576H122.766V224.883H121.868V224.242C121.716 224.445 121.511 224.615 121.25 224.75C120.989 224.886 120.692 224.953 120.359 224.953C119.989 224.953 119.65 224.859 119.343 224.672C119.035 224.479 118.79 224.213 118.608 223.875C118.431 223.531 118.342 223.142 118.342 222.71ZM121.868 222.725C121.868 222.428 121.805 222.17 121.68 221.952C121.56 221.733 121.401 221.566 121.203 221.451C121.005 221.337 120.791 221.279 120.562 221.279C120.333 221.279 120.119 221.337 119.921 221.451C119.723 221.561 119.562 221.725 119.436 221.944C119.317 222.157 119.257 222.413 119.257 222.71C119.257 223.007 119.317 223.267 119.436 223.492C119.562 223.716 119.723 223.888 119.921 224.007C120.124 224.122 120.338 224.179 120.562 224.179C120.791 224.179 121.005 224.122 121.203 224.007C121.401 223.893 121.56 223.726 121.68 223.507C121.805 223.283 121.868 223.023 121.868 222.725ZM124.977 221.303V223.687C124.977 223.848 125.013 223.966 125.086 224.039C125.164 224.106 125.294 224.14 125.477 224.14H126.024V224.883H125.321C124.919 224.883 124.612 224.789 124.398 224.602C124.184 224.414 124.078 224.109 124.078 223.687V221.303H123.57V220.576H124.078V219.505H124.977V220.576H126.024V221.303H124.977ZM127.299 220.005C127.137 220.005 127.002 219.95 126.892 219.841C126.783 219.732 126.728 219.596 126.728 219.435C126.728 219.273 126.783 219.138 126.892 219.028C127.002 218.919 127.137 218.864 127.299 218.864C127.455 218.864 127.588 218.919 127.697 219.028C127.807 219.138 127.862 219.273 127.862 219.435C127.862 219.596 127.807 219.732 127.697 219.841C127.588 219.95 127.455 220.005 127.299 220.005ZM127.736 220.576V224.883H126.845V220.576H127.736ZM130.775 224.953C130.368 224.953 130.001 224.862 129.673 224.68C129.344 224.492 129.086 224.232 128.899 223.898C128.711 223.559 128.617 223.168 128.617 222.725C128.617 222.288 128.714 221.899 128.906 221.561C129.099 221.222 129.362 220.961 129.696 220.779C130.029 220.597 130.402 220.505 130.814 220.505C131.225 220.505 131.598 220.597 131.932 220.779C132.265 220.961 132.528 221.222 132.721 221.561C132.914 221.899 133.01 222.288 133.01 222.725C133.01 223.163 132.911 223.551 132.713 223.89C132.515 224.229 132.244 224.492 131.9 224.68C131.562 224.862 131.186 224.953 130.775 224.953ZM130.775 224.179C131.004 224.179 131.218 224.125 131.416 224.015C131.619 223.906 131.783 223.742 131.908 223.523C132.033 223.304 132.096 223.038 132.096 222.725C132.096 222.413 132.036 222.15 131.916 221.936C131.796 221.717 131.637 221.553 131.439 221.443C131.241 221.334 131.027 221.279 130.798 221.279C130.569 221.279 130.355 221.334 130.157 221.443C129.964 221.553 129.811 221.717 129.696 221.936C129.581 222.15 129.524 222.413 129.524 222.725C129.524 223.189 129.641 223.549 129.876 223.804C130.115 224.054 130.415 224.179 130.775 224.179ZM136.064 220.505C136.403 220.505 136.705 220.576 136.971 220.717C137.242 220.857 137.453 221.066 137.604 221.342C137.755 221.618 137.831 221.952 137.831 222.342V224.883H136.948V222.475C136.948 222.09 136.851 221.795 136.658 221.592C136.466 221.384 136.202 221.279 135.869 221.279C135.535 221.279 135.27 221.384 135.072 221.592C134.879 221.795 134.782 222.09 134.782 222.475V224.883H133.891V220.576H134.782V221.068C134.928 220.891 135.113 220.753 135.337 220.654C135.567 220.555 135.809 220.505 136.064 220.505ZM141.452 220.005C141.29 220.005 141.155 219.95 141.045 219.841C140.936 219.732 140.881 219.596 140.881 219.435C140.881 219.273 140.936 219.138 141.045 219.028C141.155 218.919 141.29 218.864 141.452 218.864C141.608 218.864 141.741 218.919 141.85 219.028C141.96 219.138 142.014 219.273 142.014 219.435C142.014 219.596 141.96 219.732 141.85 219.841C141.741 219.95 141.608 220.005 141.452 220.005ZM141.889 220.576V224.883H140.998V220.576H141.889ZM145.232 220.505C145.571 220.505 145.873 220.576 146.139 220.717C146.41 220.857 146.621 221.066 146.772 221.342C146.924 221.618 146.999 221.952 146.999 222.342V224.883H146.116V222.475C146.116 222.09 146.019 221.795 145.827 221.592C145.634 221.384 145.371 221.279 145.037 221.279C144.704 221.279 144.438 221.384 144.24 221.592C144.047 221.795 143.95 222.09 143.95 222.475V224.883H143.059V220.576H143.95V221.068C144.096 220.891 144.281 220.753 144.505 220.654C144.735 220.555 144.977 220.505 145.232 220.505Z" fill="#1E1E1E"/>
<path d="M98.2158 242.812C97.2892 242.812 96.5232 242.596 95.9176 242.166C95.3194 241.728 94.9947 241.09 94.9436 240.251H97.5263C97.5628 240.696 97.7598 240.918 98.1173 240.918C98.2486 240.918 98.3581 240.889 98.4456 240.831C98.5405 240.765 98.5879 240.667 98.5879 240.535C98.5879 240.353 98.4894 240.207 98.2924 240.098C98.0954 239.981 97.789 239.85 97.3731 239.704C96.877 239.529 96.4648 239.357 96.1365 239.189C95.8155 239.022 95.5382 238.777 95.3048 238.456C95.0713 238.135 94.9582 237.723 94.9655 237.219C94.9655 236.716 95.0932 236.289 95.3485 235.939C95.6112 235.582 95.965 235.312 96.4101 235.129C96.8624 234.947 97.3695 234.856 97.9313 234.856C98.8797 234.856 99.6312 235.075 100.186 235.512C100.747 235.95 101.043 236.567 101.072 237.362H98.4565C98.4493 237.143 98.3945 236.986 98.2924 236.891C98.1903 236.796 98.0662 236.749 97.9203 236.749C97.8182 236.749 97.7343 236.785 97.6686 236.858C97.6029 236.924 97.5701 237.019 97.5701 237.143C97.5701 237.318 97.665 237.464 97.8546 237.581C98.0516 237.69 98.3617 237.825 98.7849 237.986C99.2737 238.168 99.6749 238.343 99.9887 238.511C100.31 238.679 100.587 238.912 100.82 239.211C101.054 239.51 101.171 239.886 101.171 240.338C101.171 240.813 101.054 241.239 100.82 241.619C100.587 241.991 100.248 242.283 99.8026 242.494C99.3576 242.706 98.8286 242.812 98.2158 242.812ZM107.999 239.594C107.999 239.762 107.988 239.923 107.967 240.076H104.06C104.096 240.608 104.319 240.875 104.727 240.875C104.99 240.875 105.18 240.754 105.296 240.514H107.868C107.781 240.951 107.595 241.345 107.31 241.695C107.033 242.038 106.679 242.312 106.248 242.516C105.825 242.713 105.358 242.812 104.848 242.812C104.235 242.812 103.688 242.684 103.206 242.429C102.732 242.173 102.36 241.809 102.09 241.334C101.827 240.853 101.696 240.291 101.696 239.649C101.696 239.007 101.827 238.449 102.09 237.975C102.36 237.493 102.732 237.125 103.206 236.869C103.688 236.614 104.235 236.486 104.848 236.486C105.46 236.486 106.004 236.614 106.478 236.869C106.96 237.117 107.332 237.475 107.595 237.942C107.864 238.409 107.999 238.96 107.999 239.594ZM105.537 239.014C105.537 238.81 105.471 238.657 105.34 238.555C105.209 238.445 105.045 238.39 104.848 238.39C104.417 238.39 104.165 238.598 104.093 239.014H105.537ZM108.439 239.649C108.439 239.007 108.571 238.449 108.833 237.975C109.103 237.493 109.475 237.125 109.95 236.869C110.431 236.614 110.978 236.486 111.591 236.486C112.394 236.486 113.069 236.712 113.616 237.165C114.17 237.617 114.521 238.245 114.666 239.047H112.095C112 238.726 111.814 238.566 111.537 238.566C111.34 238.566 111.183 238.657 111.066 238.839C110.957 239.022 110.902 239.291 110.902 239.649C110.902 240.006 110.957 240.276 111.066 240.459C111.183 240.641 111.34 240.732 111.537 240.732C111.814 240.732 112 240.572 112.095 240.251H114.666C114.521 241.053 114.17 241.681 113.616 242.133C113.069 242.586 112.394 242.812 111.591 242.812C110.978 242.812 110.431 242.684 109.95 242.429C109.475 242.173 109.103 241.809 108.833 241.334C108.571 240.853 108.439 240.291 108.439 239.649ZM118.369 242.812C117.749 242.812 117.191 242.684 116.695 242.429C116.199 242.173 115.809 241.809 115.524 241.334C115.247 240.853 115.108 240.291 115.108 239.649C115.108 239.007 115.247 238.449 115.524 237.975C115.809 237.493 116.199 237.125 116.695 236.869C117.191 236.614 117.749 236.486 118.369 236.486C118.99 236.486 119.548 236.614 120.044 236.869C120.54 237.125 120.927 237.493 121.204 237.975C121.488 238.449 121.631 239.007 121.631 239.649C121.631 240.291 121.488 240.853 121.204 241.334C120.927 241.809 120.54 242.173 120.044 242.429C119.548 242.684 118.99 242.812 118.369 242.812ZM118.369 240.711C118.596 240.711 118.785 240.623 118.939 240.448C119.092 240.265 119.168 239.999 119.168 239.649C119.168 239.299 119.092 239.036 118.939 238.861C118.785 238.679 118.596 238.587 118.369 238.587C118.143 238.587 117.954 238.679 117.8 238.861C117.647 239.036 117.571 239.299 117.571 239.649C117.571 239.999 117.644 240.265 117.789 240.448C117.943 240.623 118.136 240.711 118.369 240.711ZM126.717 236.519C127.424 236.519 127.975 236.756 128.369 237.23C128.77 237.705 128.971 238.347 128.971 239.157V242.735H126.553V239.463C126.553 239.171 126.472 238.941 126.312 238.773C126.159 238.598 125.951 238.511 125.688 238.511C125.418 238.511 125.206 238.598 125.053 238.773C124.9 238.941 124.823 239.171 124.823 239.463V242.735H122.394V236.563H124.823V237.504C125.013 237.212 125.265 236.975 125.579 236.793C125.9 236.61 126.279 236.519 126.717 236.519ZM129.696 239.649C129.696 239 129.806 238.438 130.025 237.964C130.251 237.482 130.557 237.117 130.944 236.869C131.331 236.614 131.765 236.486 132.246 236.486C132.647 236.486 132.99 236.57 133.275 236.738C133.567 236.898 133.789 237.121 133.942 237.406V234.637H136.372V242.735H133.942V241.892C133.789 242.177 133.567 242.403 133.275 242.571C132.99 242.731 132.647 242.812 132.246 242.812C131.765 242.812 131.331 242.688 130.944 242.44C130.557 242.184 130.251 241.819 130.025 241.345C129.806 240.864 129.696 240.298 129.696 239.649ZM133.953 239.649C133.953 239.321 133.869 239.065 133.702 238.883C133.534 238.701 133.319 238.609 133.056 238.609C132.793 238.609 132.578 238.701 132.41 238.883C132.243 239.065 132.159 239.321 132.159 239.649C132.159 239.977 132.243 240.233 132.41 240.415C132.578 240.597 132.793 240.689 133.056 240.689C133.319 240.689 133.534 240.597 133.702 240.415C133.869 240.233 133.953 239.977 133.953 239.649ZM140.21 242.812C139.626 242.812 139.108 242.717 138.656 242.527C138.211 242.337 137.857 242.075 137.594 241.739C137.332 241.404 137.182 241.024 137.146 240.601H139.477C139.506 240.783 139.582 240.918 139.706 241.006C139.838 241.094 140.002 241.137 140.199 241.137C140.323 241.137 140.421 241.112 140.494 241.061C140.567 241.002 140.604 240.933 140.604 240.853C140.604 240.714 140.527 240.616 140.374 240.557C140.221 240.499 139.962 240.433 139.597 240.36C139.152 240.273 138.783 240.178 138.492 240.076C138.207 239.974 137.955 239.799 137.736 239.55C137.525 239.302 137.419 238.96 137.419 238.522C137.419 238.142 137.518 237.8 137.715 237.493C137.919 237.179 138.218 236.935 138.612 236.76C139.006 236.577 139.484 236.486 140.046 236.486C140.877 236.486 141.527 236.691 141.994 237.099C142.468 237.508 142.752 238.04 142.847 238.697H140.691C140.655 238.529 140.578 238.401 140.461 238.314C140.345 238.219 140.188 238.172 139.991 238.172C139.867 238.172 139.772 238.197 139.706 238.248C139.641 238.292 139.608 238.361 139.608 238.456C139.608 238.58 139.684 238.675 139.838 238.741C139.991 238.799 140.235 238.861 140.571 238.927C141.016 239.014 141.392 239.113 141.698 239.222C142.004 239.332 142.271 239.521 142.497 239.791C142.723 240.054 142.836 240.419 142.836 240.886C142.836 241.25 142.73 241.579 142.519 241.871C142.307 242.162 142.001 242.392 141.6 242.56C141.206 242.728 140.742 242.812 140.21 242.812Z" fill="#67DC7A"/>
<path d="M199.032 109.573H212.32" stroke="#1E1E1E" stroke-opacity="0.1" stroke-width="1.56338" stroke-miterlimit="10" stroke-linecap="round"/>
<path d="M199.032 112.7H218.574" stroke="#1E1E1E" stroke-opacity="0.1" stroke-width="1.56338" stroke-miterlimit="10" stroke-linecap="round"/>
<path d="M202.158 173.103L244.762 172.89" stroke="#1E1E1E" stroke-opacity="0.1" stroke-width="1.56338" stroke-miterlimit="10" stroke-linecap="round"/>
<path d="M202.158 180.352L244.762 180.139" stroke="#1E1E1E" stroke-opacity="0.1" stroke-width="1.56338" stroke-miterlimit="10" stroke-linecap="round"/>
<path d="M202.158 187.601L244.762 187.387" stroke="#1E1E1E" stroke-opacity="0.1" stroke-width="1.56338" stroke-miterlimit="10" stroke-linecap="round"/>
<path d="M202.158 194.852L244.762 194.636" stroke="#1E1E1E" stroke-opacity="0.1" stroke-width="1.56338" stroke-miterlimit="10" stroke-linecap="round"/>
<path d="M150.567 137.716C168.539 137.628 168.552 140.145 186.525 140.057" stroke="#1E1E1E" stroke-opacity="0.1" stroke-width="1.56338" stroke-miterlimit="10" stroke-linecap="round"/>
<path d="M150.567 145.533C168.539 145.445 168.552 147.961 186.525 147.873" stroke="#1E1E1E" stroke-opacity="0.1" stroke-width="1.56338" stroke-miterlimit="10" stroke-linecap="round"/>
<path d="M150.567 153.35C168.539 153.262 168.552 155.778 186.525 155.69" stroke="#1E1E1E" stroke-opacity="0.1" stroke-width="1.56338" stroke-miterlimit="10" stroke-linecap="round"/>
<path d="M150.567 161.167C168.539 161.079 168.552 163.595 186.525 163.507" stroke="#1E1E1E" stroke-opacity="0.1" stroke-width="1.56338" stroke-miterlimit="10" stroke-linecap="round"/>
<path d="M150.567 168.984C168.539 168.867 168.552 172.222 186.525 172.105" stroke="#1E1E1E" stroke-opacity="0.1" stroke-width="1.56338" stroke-miterlimit="10" stroke-linecap="round"/>
</svg>
