<svg width="411" height="302" viewBox="0 0 411 302" fill="none" xmlns="http://www.w3.org/2000/svg">
<g clip-path="url(#clip0_739_25039)">
<path d="M302.732 48.2252H113.804V74.4813H302.732V48.2252Z" fill="#67DC7A"/>
<path d="M62.176 109.097H342.986" stroke="#262626" stroke-width="1.03687" stroke-miterlimit="10"/>
<path d="M208.297 74.4839V108.776" stroke="#262626" stroke-width="1.03687" stroke-miterlimit="10"/>
<path d="M62.6968 108.592V147.469" stroke="#262626" stroke-width="1.03687" stroke-miterlimit="10"/>
<path d="M155.954 108.638V147.516" stroke="#262626" stroke-width="1.03687" stroke-miterlimit="10"/>
<path d="M253.704 108.939V147.817" stroke="#262626" stroke-width="1.03687" stroke-miterlimit="10"/>
<path d="M342.457 108.835V147.713" stroke="#262626" stroke-width="1.03687" stroke-miterlimit="10"/>
<path d="M51.0314 237.885C51.3333 237.939 51.5895 238.098 51.7997 238.362C52.01 238.626 52.1151 238.925 52.1151 239.259C52.1151 239.545 52.0397 239.804 51.8887 240.036C51.7431 240.262 51.5301 240.443 51.2498 240.578C50.9694 240.707 50.6432 240.772 50.2712 240.772H48.0228V235.151H50.166C50.5488 235.151 50.8777 235.216 51.1527 235.345C51.4277 235.474 51.6353 235.65 51.7755 235.871C51.9157 236.086 51.9857 236.329 51.9857 236.599C51.9857 236.922 51.8995 237.192 51.7269 237.407C51.5544 237.623 51.3226 237.782 51.0314 237.885ZM48.9448 237.513H50.0852C50.3871 237.513 50.6216 237.445 50.7888 237.31C50.9613 237.17 51.0476 236.971 51.0476 236.712C51.0476 236.458 50.9613 236.262 50.7888 236.121C50.6216 235.976 50.3871 235.903 50.0852 235.903H48.9448V237.513ZM50.1903 240.02C50.503 240.02 50.7483 239.944 50.9263 239.793C51.1042 239.642 51.1932 239.432 51.1932 239.162C51.1932 238.887 51.0988 238.669 50.9101 238.507C50.7214 238.346 50.4707 238.265 50.1579 238.265H48.9448V240.02H50.1903ZM57.1528 236.316V240.772H56.2308V240.246C56.0852 240.429 55.8938 240.575 55.6566 240.683C55.4247 240.785 55.1767 240.837 54.9125 240.837C54.562 240.837 54.2466 240.764 53.9663 240.618C53.6913 240.473 53.4729 240.257 53.3112 239.971C53.1548 239.685 53.0766 239.34 53.0766 238.936V236.316H53.9905V238.798C53.9905 239.197 54.0903 239.505 54.2898 239.72C54.4892 239.931 54.7615 240.036 55.1066 240.036C55.4517 240.036 55.724 239.931 55.9234 239.72C56.1283 239.505 56.2308 239.197 56.2308 238.798V236.316H57.1528ZM59.9868 240.845C59.6363 240.845 59.3209 240.783 59.0405 240.659C58.7655 240.529 58.5472 240.357 58.3854 240.141C58.2237 239.92 58.1374 239.675 58.1266 239.405H59.081C59.0971 239.594 59.1861 239.753 59.3478 239.882C59.515 240.006 59.7226 240.068 59.9706 240.068C60.2294 240.068 60.4289 240.02 60.5691 239.923C60.7146 239.82 60.7874 239.691 60.7874 239.534C60.7874 239.367 60.7066 239.243 60.5448 239.162C60.3884 239.082 60.1377 238.993 59.7927 238.896C59.4584 238.804 59.1861 238.715 58.9758 238.629C58.7655 238.542 58.5822 238.41 58.4259 238.232C58.2749 238.054 58.1994 237.82 58.1994 237.529C58.1994 237.291 58.2695 237.076 58.4097 236.882C58.5499 236.682 58.7494 236.526 59.0082 236.413C59.2724 236.299 59.5743 236.243 59.914 236.243C60.4208 236.243 60.8279 236.372 61.1352 236.631C61.4479 236.884 61.6151 237.232 61.6366 237.674H60.7146C60.6985 237.475 60.6176 237.316 60.472 237.197C60.3264 237.079 60.1296 237.019 59.8816 237.019C59.639 237.019 59.453 237.065 59.3236 237.157C59.1942 237.248 59.1295 237.37 59.1295 237.521C59.1295 237.639 59.1726 237.739 59.2589 237.82C59.3451 237.901 59.4503 237.965 59.5743 238.014C59.6983 238.057 59.8816 238.114 60.1242 238.184C60.4478 238.27 60.7119 238.359 60.9168 238.451C61.1271 238.537 61.3077 238.666 61.4587 238.839C61.6097 239.011 61.6878 239.241 61.6932 239.526C61.6932 239.78 61.6231 240.006 61.483 240.206C61.3428 240.405 61.1433 240.562 60.8845 240.675C60.6311 240.788 60.3318 240.845 59.9868 240.845ZM63.1585 235.725C62.9914 235.725 62.8512 235.669 62.738 235.555C62.6248 235.442 62.5682 235.302 62.5682 235.135C62.5682 234.968 62.6248 234.827 62.738 234.714C62.8512 234.601 62.9914 234.544 63.1585 234.544C63.3203 234.544 63.4578 234.601 63.571 234.714C63.6842 234.827 63.7409 234.968 63.7409 235.135C63.7409 235.302 63.6842 235.442 63.571 235.555C63.4578 235.669 63.3203 235.725 63.1585 235.725ZM63.6114 236.316V240.772H62.6895V236.316H63.6114ZM67.0703 236.243C67.4207 236.243 67.7335 236.316 68.0084 236.461C68.2888 236.607 68.5072 236.822 68.6635 237.108C68.8199 237.394 68.8981 237.739 68.8981 238.143V240.772H67.9842V238.281C67.9842 237.882 67.8844 237.577 67.6849 237.367C67.4854 237.151 67.2132 237.043 66.8681 237.043C66.523 237.043 66.248 237.151 66.0432 237.367C65.8437 237.577 65.7439 237.882 65.7439 238.281V240.772H64.8219V236.316H65.7439V236.825C65.8949 236.642 66.0863 236.499 66.3181 236.396C66.5554 236.294 66.8061 236.243 67.0703 236.243ZM74.1583 238.435C74.1583 238.602 74.1476 238.753 74.126 238.887H70.7211C70.7481 239.243 70.8802 239.529 71.1174 239.745C71.3547 239.96 71.6458 240.068 71.9909 240.068C72.4869 240.068 72.8374 239.861 73.0423 239.445H74.037C73.9022 239.855 73.6569 240.192 73.3011 240.456C72.9506 240.715 72.5139 240.845 71.9909 240.845C71.5649 240.845 71.1821 240.75 70.8424 240.562C70.5082 240.367 70.244 240.098 70.0499 239.753C69.8611 239.402 69.7668 238.998 69.7668 238.54C69.7668 238.081 69.8585 237.68 70.0418 237.335C70.2305 236.984 70.492 236.715 70.8263 236.526C71.1659 236.337 71.5541 236.243 71.9909 236.243C72.4114 236.243 72.7862 236.334 73.1151 236.518C73.4439 236.701 73.7001 236.96 73.8834 237.294C74.0667 237.623 74.1583 238.003 74.1583 238.435ZM73.1959 238.143C73.1905 237.804 73.0692 237.531 72.832 237.327C72.5947 237.122 72.3009 237.019 71.9504 237.019C71.6323 237.019 71.36 237.122 71.1336 237.327C70.9071 237.526 70.7723 237.798 70.7292 238.143H73.1959ZM76.6832 240.845C76.3327 240.845 76.0173 240.783 75.7369 240.659C75.462 240.529 75.2436 240.357 75.0818 240.141C74.9201 239.92 74.8338 239.675 74.823 239.405H75.7774C75.7936 239.594 75.8825 239.753 76.0443 239.882C76.2114 240.006 76.419 240.068 76.667 240.068C76.9258 240.068 77.1253 240.02 77.2655 239.923C77.4111 239.82 77.4839 239.691 77.4839 239.534C77.4839 239.367 77.403 239.243 77.2412 239.162C77.0849 239.082 76.8342 238.993 76.4891 238.896C76.1548 238.804 75.8825 238.715 75.6722 238.629C75.462 238.542 75.2786 238.41 75.1223 238.232C74.9713 238.054 74.8958 237.82 74.8958 237.529C74.8958 237.291 74.9659 237.076 75.1061 236.882C75.2463 236.682 75.4458 236.526 75.7046 236.413C75.9688 236.299 76.2707 236.243 76.6104 236.243C77.1172 236.243 77.5243 236.372 77.8316 236.631C78.1443 236.884 78.3115 237.232 78.3331 237.674H77.4111C77.3949 237.475 77.314 237.316 77.1684 237.197C77.0229 237.079 76.8261 237.019 76.5781 237.019C76.3354 237.019 76.1494 237.065 76.02 237.157C75.8906 237.248 75.8259 237.37 75.8259 237.521C75.8259 237.639 75.869 237.739 75.9553 237.82C76.0416 237.901 76.1467 237.965 76.2707 238.014C76.3947 238.057 76.5781 238.114 76.8207 238.184C77.1442 238.27 77.4084 238.359 77.6133 238.451C77.8235 238.537 78.0042 238.666 78.1551 238.839C78.3061 239.011 78.3843 239.241 78.3897 239.526C78.3897 239.78 78.3196 240.006 78.1794 240.206C78.0392 240.405 77.8397 240.562 77.5809 240.675C77.3275 240.788 77.0283 240.845 76.6832 240.845ZM81.0034 240.845C80.6529 240.845 80.3375 240.783 80.0572 240.659C79.7822 240.529 79.5638 240.357 79.4021 240.141C79.2403 239.92 79.1541 239.675 79.1433 239.405H80.0976C80.1138 239.594 80.2027 239.753 80.3645 239.882C80.5316 240.006 80.7392 240.068 80.9872 240.068C81.246 240.068 81.4455 240.02 81.5857 239.923C81.7313 239.82 81.8041 239.691 81.8041 239.534C81.8041 239.367 81.7232 239.243 81.5615 239.162C81.4051 239.082 81.1544 238.993 80.8093 238.896C80.475 238.804 80.2027 238.715 79.9925 238.629C79.7822 238.542 79.5989 238.41 79.4425 238.232C79.2915 238.054 79.2161 237.82 79.2161 237.529C79.2161 237.291 79.2861 237.076 79.4263 236.882C79.5665 236.682 79.766 236.526 80.0248 236.413C80.289 236.299 80.5909 236.243 80.9306 236.243C81.4374 236.243 81.8445 236.372 82.1518 236.631C82.4646 236.884 82.6317 237.232 82.6533 237.674H81.7313C81.7151 237.475 81.6342 237.316 81.4887 237.197C81.3431 237.079 81.1463 237.019 80.8983 237.019C80.6556 237.019 80.4696 237.065 80.3402 237.157C80.2108 237.248 80.1461 237.37 80.1461 237.521C80.1461 237.639 80.1893 237.739 80.2755 237.82C80.3618 237.901 80.4669 237.965 80.5909 238.014C80.715 238.057 80.8983 238.114 81.1409 238.184C81.4644 238.27 81.7286 238.359 81.9335 238.451C82.1438 238.537 82.3244 238.666 82.4753 238.839C82.6263 239.011 82.7045 239.241 82.7099 239.526C82.7099 239.78 82.6398 240.006 82.4996 240.206C82.3594 240.405 82.1599 240.562 81.9011 240.675C81.6477 240.788 81.3485 240.845 81.0034 240.845Z" fill="#262626"/>
<path d="M44.3991 250.534C43.8761 250.534 43.3935 250.412 42.9514 250.17C42.5147 249.922 42.1669 249.579 41.9081 249.142C41.6547 248.7 41.528 248.204 41.528 247.654C41.528 247.104 41.6547 246.611 41.9081 246.174C42.1669 245.738 42.5147 245.398 42.9514 245.155C43.3935 244.907 43.8761 244.783 44.3991 244.783C44.9275 244.783 45.41 244.907 45.8468 245.155C46.2889 245.398 46.6367 245.738 46.8901 246.174C47.1435 246.611 47.2702 247.104 47.2702 247.654C47.2702 248.204 47.1435 248.7 46.8901 249.142C46.6367 249.579 46.2889 249.922 45.8468 250.17C45.41 250.412 44.9275 250.534 44.3991 250.534ZM44.3991 249.733C44.7711 249.733 45.1027 249.649 45.3939 249.482C45.685 249.31 45.9115 249.067 46.0732 248.754C46.2404 248.436 46.3239 248.07 46.3239 247.654C46.3239 247.239 46.2404 246.875 46.0732 246.563C45.9115 246.25 45.685 246.01 45.3939 245.843C45.1027 245.676 44.7711 245.592 44.3991 245.592C44.0271 245.592 43.6955 245.676 43.4043 245.843C43.1132 246.01 42.884 246.25 42.7169 246.563C42.5551 246.875 42.4742 247.239 42.4742 247.654C42.4742 248.07 42.5551 248.436 42.7169 248.754C42.884 249.067 43.1132 249.31 43.4043 249.482C43.6955 249.649 44.0271 249.733 44.3991 249.733ZM52.2131 246.021V250.477H51.2912V249.951C51.1456 250.135 50.9542 250.28 50.7169 250.388C50.4851 250.49 50.2371 250.542 49.9729 250.542C49.6224 250.542 49.307 250.469 49.0266 250.323C48.7517 250.178 48.5333 249.962 48.3715 249.676C48.2152 249.39 48.137 249.045 48.137 248.641V246.021H49.0509V248.504C49.0509 248.903 49.1506 249.21 49.3501 249.426C49.5496 249.636 49.8219 249.741 50.167 249.741C50.5121 249.741 50.7843 249.636 50.9838 249.426C51.1887 249.21 51.2912 248.903 51.2912 248.504V246.021H52.2131ZM54.5053 246.773V249.24C54.5053 249.407 54.543 249.528 54.6185 249.603C54.6994 249.674 54.8342 249.709 55.0229 249.709H55.589V250.477H54.8611C54.446 250.477 54.1279 250.38 53.9068 250.186C53.6857 249.992 53.5752 249.676 53.5752 249.24V246.773H53.0495V246.021H53.5752V244.913H54.5053V246.021H55.589V246.773H54.5053ZM58.0563 250.55C57.7058 250.55 57.3904 250.488 57.1101 250.364C56.8351 250.234 56.6167 250.062 56.455 249.846C56.2932 249.625 56.2069 249.38 56.1962 249.11H57.1505C57.1667 249.299 57.2556 249.458 57.4174 249.587C57.5845 249.711 57.7921 249.773 58.0401 249.773C58.2989 249.773 58.4984 249.725 58.6386 249.628C58.7842 249.525 58.857 249.396 58.857 249.24C58.857 249.072 58.7761 248.948 58.6143 248.868C58.458 248.787 58.2073 248.698 57.8622 248.601C57.5279 248.509 57.2556 248.42 57.0453 248.334C56.8351 248.247 56.6518 248.115 56.4954 247.937C56.3444 247.76 56.2689 247.525 56.2689 247.234C56.2689 246.997 56.339 246.781 56.4792 246.587C56.6194 246.387 56.8189 246.231 57.0777 246.118C57.3419 246.004 57.6438 245.948 57.9835 245.948C58.4903 245.948 58.8974 246.077 59.2047 246.336C59.5175 246.589 59.6846 246.937 59.7062 247.379H58.7842C58.768 247.18 58.6871 247.021 58.5416 246.902C58.396 246.784 58.1992 246.724 57.9512 246.724C57.7085 246.724 57.5225 246.77 57.3931 246.862C57.2637 246.953 57.199 247.075 57.199 247.226C57.199 247.344 57.2421 247.444 57.3284 247.525C57.4147 247.606 57.5198 247.671 57.6438 247.719C57.7678 247.762 57.9512 247.819 58.1938 247.889C58.5173 247.975 58.7815 248.064 58.9864 248.156C59.1966 248.242 59.3773 248.371 59.5282 248.544C59.6792 248.717 59.7574 248.946 59.7628 249.231C59.7628 249.485 59.6927 249.711 59.5525 249.911C59.4123 250.11 59.2128 250.267 58.954 250.38C58.7006 250.493 58.4014 250.55 58.0563 250.55ZM62.6919 250.55C62.2714 250.55 61.8913 250.455 61.5516 250.267C61.2119 250.073 60.945 249.803 60.7509 249.458C60.5568 249.107 60.4598 248.703 60.4598 248.245C60.4598 247.792 60.5595 247.39 60.759 247.04C60.9585 246.689 61.2308 246.42 61.5758 246.231C61.9209 246.042 62.3064 245.948 62.7324 245.948C63.1583 245.948 63.5438 246.042 63.8889 246.231C64.234 246.42 64.5062 246.689 64.7057 247.04C64.9052 247.39 65.005 247.792 65.005 248.245C65.005 248.698 64.9025 249.099 64.6977 249.45C64.4928 249.8 64.2124 250.073 63.8565 250.267C63.5061 250.455 63.1179 250.55 62.6919 250.55ZM62.6919 249.749C62.9292 249.749 63.1502 249.692 63.3551 249.579C63.5654 249.466 63.7352 249.296 63.8646 249.07C63.994 248.843 64.0587 248.568 64.0587 248.245C64.0587 247.921 63.9967 247.649 63.8727 247.428C63.7487 247.201 63.5843 247.032 63.3794 246.918C63.1745 246.805 62.9534 246.749 62.7162 246.749C62.479 246.749 62.2579 246.805 62.053 246.918C61.8535 247.032 61.6945 247.201 61.5758 247.428C61.4572 247.649 61.3979 247.921 61.3979 248.245C61.3979 248.725 61.5192 249.097 61.7619 249.361C62.0099 249.62 62.3199 249.749 62.6919 249.749ZM69.9521 246.021V250.477H69.0301V249.951C68.8846 250.135 68.6931 250.28 68.4559 250.388C68.2241 250.49 67.9761 250.542 67.7119 250.542C67.3614 250.542 67.046 250.469 66.7656 250.323C66.4906 250.178 66.2723 249.962 66.1105 249.676C65.9542 249.39 65.876 249.045 65.876 248.641V246.021H66.7899V248.504C66.7899 248.903 66.8896 249.21 67.0891 249.426C67.2886 249.636 67.5609 249.741 67.906 249.741C68.251 249.741 68.5233 249.636 68.7228 249.426C68.9277 249.21 69.0301 248.903 69.0301 248.504V246.021H69.9521ZM72.0906 246.668C72.2254 246.441 72.4033 246.266 72.6244 246.142C72.8508 246.013 73.1177 245.948 73.425 245.948V246.902H73.1905C72.8293 246.902 72.5543 246.994 72.3656 247.177C72.1822 247.361 72.0906 247.679 72.0906 248.132V250.477H71.1686V246.021H72.0906V246.668ZM73.9652 248.245C73.9652 247.786 74.0569 247.385 74.2402 247.04C74.4289 246.689 74.6877 246.42 75.0166 246.231C75.3455 246.042 75.7229 245.948 76.1488 245.948C76.688 245.948 77.1328 246.077 77.4833 246.336C77.8391 246.589 78.0791 246.953 78.2031 247.428H77.2083C77.1274 247.207 76.998 247.034 76.8201 246.91C76.6422 246.786 76.4184 246.724 76.1488 246.724C75.7714 246.724 75.4695 246.859 75.243 247.129C75.022 247.393 74.9114 247.765 74.9114 248.245C74.9114 248.725 75.022 249.099 75.243 249.369C75.4695 249.639 75.7714 249.773 76.1488 249.773C76.6826 249.773 77.0358 249.539 77.2083 249.07H78.2031C78.0737 249.523 77.8311 249.884 77.4752 250.153C77.1194 250.418 76.6772 250.55 76.1488 250.55C75.7229 250.55 75.3455 250.455 75.0166 250.267C74.6877 250.073 74.4289 249.803 74.2402 249.458C74.0569 249.107 73.9652 248.703 73.9652 248.245ZM79.591 245.43C79.4239 245.43 79.2837 245.374 79.1704 245.26C79.0572 245.147 79.0006 245.007 79.0006 244.84C79.0006 244.673 79.0572 244.533 79.1704 244.419C79.2837 244.306 79.4239 244.249 79.591 244.249C79.7527 244.249 79.8902 244.306 80.0035 244.419C80.1167 244.533 80.1733 244.673 80.1733 244.84C80.1733 245.007 80.1167 245.147 80.0035 245.26C79.8902 245.374 79.7527 245.43 79.591 245.43ZM80.0439 246.021V250.477H79.1219V246.021H80.0439ZM83.5027 245.948C83.8532 245.948 84.1659 246.021 84.4409 246.166C84.7213 246.312 84.9396 246.527 85.096 246.813C85.2523 247.099 85.3305 247.444 85.3305 247.848V250.477H84.4166V247.986C84.4166 247.587 84.3169 247.282 84.1174 247.072C83.9179 246.856 83.6456 246.749 83.3005 246.749C82.9555 246.749 82.6805 246.856 82.4756 247.072C82.2761 247.282 82.1764 247.587 82.1764 247.986V250.477H81.2544V246.021H82.1764V246.53C82.3273 246.347 82.5187 246.204 82.7506 246.102C82.9878 245.999 83.2385 245.948 83.5027 245.948ZM88.302 245.948C88.6471 245.948 88.9517 246.018 89.2159 246.158C89.4855 246.293 89.6958 246.463 89.8467 246.668V246.021H90.7768V250.55C90.7768 250.959 90.6905 251.323 90.518 251.642C90.3455 251.965 90.0948 252.218 89.7659 252.402C89.4424 252.585 89.0542 252.677 88.6013 252.677C87.9974 252.677 87.496 252.534 87.097 252.248C86.698 251.968 86.4715 251.585 86.4176 251.1H87.3315C87.4016 251.332 87.5499 251.518 87.7763 251.658C88.0082 251.803 88.2831 251.876 88.6013 251.876C88.9733 251.876 89.2725 251.763 89.499 251.536C89.7308 251.31 89.8467 250.981 89.8467 250.55V249.806C89.6904 250.016 89.4774 250.194 89.2078 250.339C88.9436 250.48 88.6417 250.55 88.302 250.55C87.9138 250.55 87.558 250.453 87.2345 250.259C86.9163 250.059 86.6629 249.784 86.4742 249.434C86.2909 249.078 86.1992 248.676 86.1992 248.229C86.1992 247.781 86.2909 247.385 86.4742 247.04C86.6629 246.695 86.9163 246.428 87.2345 246.239C87.558 246.045 87.9138 245.948 88.302 245.948ZM89.8467 248.245C89.8467 247.937 89.782 247.671 89.6526 247.444C89.5286 247.218 89.3642 247.045 89.1593 246.926C88.9544 246.808 88.7334 246.749 88.4961 246.749C88.2589 246.749 88.0378 246.808 87.8329 246.926C87.628 247.04 87.4609 247.21 87.3315 247.436C87.2075 247.657 87.1455 247.921 87.1455 248.229C87.1455 248.536 87.2075 248.805 87.3315 249.037C87.4609 249.269 87.628 249.447 87.8329 249.571C88.0432 249.69 88.2643 249.749 88.4961 249.749C88.7334 249.749 88.9544 249.69 89.1593 249.571C89.3642 249.453 89.5286 249.28 89.6526 249.054C89.782 248.822 89.8467 248.552 89.8467 248.245Z" fill="#262626"/>
<path d="M152.167 240.028L150.873 237.78H150.169V240.028H149.247V234.407H151.188C151.619 234.407 151.983 234.482 152.28 234.633C152.582 234.784 152.805 234.987 152.951 235.24C153.102 235.493 153.178 235.776 153.178 236.089C153.178 236.456 153.07 236.79 152.854 237.092C152.644 237.389 152.318 237.591 151.875 237.699L153.266 240.028H152.167ZM150.169 237.044H151.188C151.533 237.044 151.792 236.957 151.964 236.785C152.142 236.612 152.231 236.38 152.231 236.089C152.231 235.798 152.145 235.572 151.972 235.41C151.8 235.243 151.538 235.159 151.188 235.159H150.169V237.044ZM154.826 234.981C154.659 234.981 154.519 234.925 154.405 234.811C154.292 234.698 154.236 234.558 154.236 234.391C154.236 234.224 154.292 234.083 154.405 233.97C154.519 233.857 154.659 233.8 154.826 233.8C154.988 233.8 155.125 233.857 155.239 233.97C155.352 234.083 155.408 234.224 155.408 234.391C155.408 234.558 155.352 234.698 155.239 234.811C155.125 234.925 154.988 234.981 154.826 234.981ZM155.279 235.572V240.028H154.357V235.572H155.279ZM158.107 240.101C157.756 240.101 157.441 240.039 157.161 239.915C156.886 239.785 156.667 239.613 156.506 239.397C156.344 239.176 156.258 238.931 156.247 238.661H157.201C157.217 238.85 157.306 239.009 157.468 239.138C157.635 239.262 157.843 239.324 158.091 239.324C158.35 239.324 158.549 239.276 158.689 239.179C158.835 239.076 158.908 238.947 158.908 238.79C158.908 238.623 158.827 238.499 158.665 238.418C158.509 238.338 158.258 238.249 157.913 238.152C157.579 238.06 157.306 237.971 157.096 237.885C156.886 237.798 156.702 237.666 156.546 237.488C156.395 237.31 156.32 237.076 156.32 236.785C156.32 236.548 156.39 236.332 156.53 236.138C156.67 235.938 156.87 235.782 157.128 235.669C157.393 235.555 157.694 235.499 158.034 235.499C158.541 235.499 158.948 235.628 159.255 235.887C159.568 236.14 159.735 236.488 159.757 236.93H158.835C158.819 236.731 158.738 236.572 158.592 236.453C158.447 236.335 158.25 236.275 158.002 236.275C157.759 236.275 157.573 236.321 157.444 236.413C157.314 236.504 157.25 236.626 157.25 236.777C157.25 236.895 157.293 236.995 157.379 237.076C157.465 237.157 157.57 237.221 157.694 237.27C157.818 237.313 158.002 237.37 158.244 237.44C158.568 237.526 158.832 237.615 159.037 237.707C159.247 237.793 159.428 237.922 159.579 238.095C159.73 238.267 159.808 238.497 159.813 238.782C159.813 239.036 159.743 239.262 159.603 239.462C159.463 239.661 159.263 239.818 159.005 239.931C158.751 240.044 158.452 240.101 158.107 240.101ZM162.573 237.804L164.627 240.028H163.382L161.732 238.111V240.028H160.81V234.043H161.732V237.521L163.349 235.572H164.627L162.573 237.804ZM171.732 240.028L171.036 239.332C170.767 239.602 170.473 239.804 170.155 239.939C169.837 240.068 169.481 240.133 169.087 240.133C168.688 240.133 168.335 240.063 168.028 239.923C167.72 239.783 167.483 239.583 167.316 239.324C167.149 239.06 167.065 238.755 167.065 238.41C167.065 238.022 167.176 237.677 167.397 237.375C167.618 237.068 167.947 236.825 168.383 236.647C168.227 236.459 168.117 236.283 168.052 236.122C167.987 235.954 167.955 235.771 167.955 235.572C167.955 235.324 168.017 235.103 168.141 234.908C168.27 234.714 168.454 234.561 168.691 234.447C168.928 234.334 169.203 234.278 169.516 234.278C169.834 234.278 170.103 234.34 170.325 234.464C170.551 234.582 170.718 234.747 170.826 234.957C170.939 235.167 170.985 235.402 170.963 235.661H170.041C170.047 235.461 169.998 235.307 169.896 235.2C169.793 235.086 169.653 235.03 169.475 235.03C169.297 235.03 169.152 235.084 169.039 235.191C168.931 235.294 168.877 235.421 168.877 235.572C168.877 235.717 168.917 235.863 168.998 236.008C169.084 236.149 169.233 236.332 169.443 236.558L170.931 238.038L171.505 237.092H172.5L171.772 238.338L171.57 238.669L172.937 240.028H171.732ZM169.087 239.349C169.594 239.349 170.041 239.141 170.43 238.726L168.942 237.23C168.305 237.483 167.987 237.866 167.987 238.378C167.987 238.653 168.09 238.885 168.295 239.074C168.499 239.257 168.764 239.349 169.087 239.349Z" fill="#262626"/>
<path d="M137.073 246.91C137.073 246.36 137.199 245.867 137.453 245.43C137.712 244.994 138.059 244.654 138.496 244.411C138.938 244.163 139.421 244.039 139.944 244.039C140.542 244.039 141.073 244.188 141.537 244.484C142.006 244.775 142.346 245.19 142.556 245.73H141.448C141.302 245.433 141.1 245.212 140.841 245.066C140.583 244.921 140.283 244.848 139.944 244.848C139.572 244.848 139.24 244.932 138.949 245.099C138.658 245.266 138.429 245.506 138.262 245.819C138.1 246.131 138.019 246.495 138.019 246.91C138.019 247.326 138.1 247.689 138.262 248.002C138.429 248.315 138.658 248.558 138.949 248.73C139.24 248.897 139.572 248.981 139.944 248.981C140.283 248.981 140.583 248.908 140.841 248.762C141.1 248.617 141.302 248.396 141.448 248.099H142.556C142.346 248.638 142.006 249.054 141.537 249.345C141.073 249.636 140.542 249.781 139.944 249.781C139.415 249.781 138.933 249.66 138.496 249.418C138.059 249.17 137.712 248.827 137.453 248.39C137.199 247.954 137.073 247.46 137.073 246.91ZM145.568 249.806C145.148 249.806 144.768 249.711 144.428 249.523C144.088 249.329 143.821 249.059 143.627 248.714C143.433 248.363 143.336 247.959 143.336 247.501C143.336 247.048 143.436 246.646 143.635 246.296C143.835 245.945 144.107 245.676 144.452 245.487C144.797 245.298 145.183 245.204 145.609 245.204C146.035 245.204 146.42 245.298 146.765 245.487C147.11 245.676 147.382 245.945 147.582 246.296C147.781 246.646 147.881 247.048 147.881 247.501C147.881 247.954 147.779 248.355 147.574 248.706C147.369 249.056 147.089 249.329 146.733 249.523C146.382 249.711 145.994 249.806 145.568 249.806ZM145.568 249.005C145.805 249.005 146.026 248.948 146.231 248.835C146.442 248.722 146.611 248.552 146.741 248.326C146.87 248.099 146.935 247.824 146.935 247.501C146.935 247.177 146.873 246.905 146.749 246.684C146.625 246.457 146.461 246.288 146.256 246.174C146.051 246.061 145.83 246.005 145.592 246.005C145.355 246.005 145.134 246.061 144.929 246.174C144.73 246.288 144.571 246.457 144.452 246.684C144.333 246.905 144.274 247.177 144.274 247.501C144.274 247.981 144.395 248.353 144.638 248.617C144.886 248.876 145.196 249.005 145.568 249.005ZM154.187 245.204C154.538 245.204 154.85 245.277 155.125 245.422C155.406 245.568 155.624 245.784 155.78 246.069C155.942 246.355 156.023 246.7 156.023 247.104V249.733H155.109V247.242C155.109 246.843 155.009 246.538 154.81 246.328C154.61 246.112 154.338 246.005 153.993 246.005C153.648 246.005 153.373 246.112 153.168 246.328C152.969 246.538 152.869 246.843 152.869 247.242V249.733H151.955V247.242C151.955 246.843 151.855 246.538 151.656 246.328C151.456 246.112 151.184 246.005 150.839 246.005C150.494 246.005 150.219 246.112 150.014 246.328C149.814 246.538 149.715 246.843 149.715 247.242V249.733H148.793V245.277H149.715V245.786C149.866 245.603 150.057 245.46 150.289 245.358C150.521 245.255 150.769 245.204 151.033 245.204C151.389 245.204 151.707 245.279 151.987 245.43C152.268 245.581 152.483 245.8 152.634 246.085C152.769 245.816 152.979 245.603 153.265 245.447C153.551 245.285 153.858 245.204 154.187 245.204ZM158.118 245.932C158.275 245.727 158.487 245.554 158.757 245.414C159.027 245.274 159.331 245.204 159.671 245.204C160.059 245.204 160.412 245.301 160.73 245.495C161.054 245.684 161.307 245.951 161.491 246.296C161.674 246.641 161.766 247.037 161.766 247.485C161.766 247.932 161.674 248.334 161.491 248.69C161.307 249.04 161.054 249.315 160.73 249.515C160.412 249.709 160.059 249.806 159.671 249.806C159.331 249.806 159.029 249.738 158.765 249.604C158.501 249.463 158.285 249.291 158.118 249.086V251.852H157.196V245.277H158.118V245.932ZM160.827 247.485C160.827 247.177 160.763 246.913 160.633 246.692C160.509 246.466 160.342 246.296 160.132 246.182C159.927 246.064 159.706 246.005 159.469 246.005C159.237 246.005 159.016 246.064 158.806 246.182C158.601 246.301 158.434 246.474 158.304 246.7C158.18 246.927 158.118 247.193 158.118 247.501C158.118 247.808 158.18 248.078 158.304 248.31C158.434 248.536 158.601 248.709 158.806 248.827C159.016 248.946 159.237 249.005 159.469 249.005C159.706 249.005 159.927 248.946 160.132 248.827C160.342 248.703 160.509 248.525 160.633 248.293C160.763 248.062 160.827 247.792 160.827 247.485ZM163.599 243.748V249.733H162.677V243.748H163.599ZM165.279 244.686C165.112 244.686 164.972 244.63 164.858 244.516C164.745 244.403 164.689 244.263 164.689 244.096C164.689 243.929 164.745 243.789 164.858 243.675C164.972 243.562 165.112 243.506 165.279 243.506C165.441 243.506 165.578 243.562 165.691 243.675C165.805 243.789 165.861 243.929 165.861 244.096C165.861 244.263 165.805 244.403 165.691 244.516C165.578 244.63 165.441 244.686 165.279 244.686ZM165.732 245.277V249.733H164.81V245.277H165.732ZM166.635 247.485C166.635 247.037 166.727 246.641 166.91 246.296C167.099 245.951 167.352 245.684 167.67 245.495C167.994 245.301 168.35 245.204 168.738 245.204C169.088 245.204 169.393 245.274 169.652 245.414C169.916 245.549 170.126 245.719 170.282 245.924V245.277H171.213V249.733H170.282V249.07C170.126 249.28 169.913 249.455 169.644 249.595C169.374 249.736 169.067 249.806 168.722 249.806C168.339 249.806 167.988 249.709 167.67 249.515C167.352 249.315 167.099 249.04 166.91 248.69C166.727 248.334 166.635 247.932 166.635 247.485ZM170.282 247.501C170.282 247.193 170.218 246.927 170.088 246.7C169.964 246.474 169.8 246.301 169.595 246.182C169.39 246.064 169.169 246.005 168.932 246.005C168.695 246.005 168.474 246.064 168.269 246.182C168.064 246.296 167.897 246.466 167.767 246.692C167.643 246.913 167.581 247.177 167.581 247.485C167.581 247.792 167.643 248.062 167.767 248.293C167.897 248.525 168.064 248.703 168.269 248.827C168.479 248.946 168.7 249.005 168.932 249.005C169.169 249.005 169.39 248.946 169.595 248.827C169.8 248.709 169.964 248.536 170.088 248.31C170.218 248.078 170.282 247.808 170.282 247.501ZM174.672 245.204C175.022 245.204 175.335 245.277 175.61 245.422C175.89 245.568 176.109 245.784 176.265 246.069C176.422 246.355 176.5 246.7 176.5 247.104V249.733H175.586V247.242C175.586 246.843 175.486 246.538 175.287 246.328C175.087 246.112 174.815 246.005 174.47 246.005C174.125 246.005 173.85 246.112 173.645 246.328C173.445 246.538 173.346 246.843 173.346 247.242V249.733H172.424V245.277H173.346V245.786C173.497 245.603 173.688 245.46 173.92 245.358C174.157 245.255 174.408 245.204 174.672 245.204ZM177.368 247.501C177.368 247.042 177.46 246.641 177.643 246.296C177.832 245.945 178.091 245.676 178.42 245.487C178.749 245.298 179.126 245.204 179.552 245.204C180.091 245.204 180.536 245.333 180.887 245.592C181.242 245.846 181.482 246.209 181.606 246.684H180.612C180.531 246.463 180.401 246.29 180.223 246.166C180.045 246.042 179.822 245.98 179.552 245.98C179.175 245.98 178.873 246.115 178.646 246.385C178.425 246.649 178.315 247.021 178.315 247.501C178.315 247.981 178.425 248.355 178.646 248.625C178.873 248.895 179.175 249.029 179.552 249.029C180.086 249.029 180.439 248.795 180.612 248.326H181.606C181.477 248.779 181.234 249.14 180.878 249.409C180.523 249.674 180.08 249.806 179.552 249.806C179.126 249.806 178.749 249.711 178.42 249.523C178.091 249.329 177.832 249.059 177.643 248.714C177.46 248.363 177.368 247.959 177.368 247.501ZM186.609 247.396C186.609 247.563 186.599 247.714 186.577 247.849H183.172C183.199 248.204 183.331 248.49 183.568 248.706C183.806 248.921 184.097 249.029 184.442 249.029C184.938 249.029 185.288 248.822 185.493 248.407H186.488C186.353 248.816 186.108 249.153 185.752 249.418C185.402 249.676 184.965 249.806 184.442 249.806C184.016 249.806 183.633 249.711 183.293 249.523C182.959 249.329 182.695 249.059 182.501 248.714C182.312 248.363 182.218 247.959 182.218 247.501C182.218 247.042 182.309 246.641 182.493 246.296C182.681 245.945 182.943 245.676 183.277 245.487C183.617 245.298 184.005 245.204 184.442 245.204C184.862 245.204 185.237 245.296 185.566 245.479C185.895 245.662 186.151 245.921 186.334 246.255C186.518 246.584 186.609 246.964 186.609 247.396ZM185.647 247.104C185.642 246.765 185.52 246.493 185.283 246.288C185.046 246.083 184.752 245.98 184.401 245.98C184.083 245.98 183.811 246.083 183.585 246.288C183.358 246.487 183.223 246.759 183.18 247.104H185.647Z" fill="#262626"/>
<path d="M130.753 62.7307C130.753 61.8715 130.951 61.1008 131.347 60.4186C131.751 59.7363 132.294 59.2057 132.976 58.8267C133.667 58.4392 134.421 58.2455 135.238 58.2455C136.173 58.2455 137.003 58.4771 137.727 58.9404C138.46 59.3952 138.99 60.0438 139.319 60.8861H137.588C137.361 60.4228 137.045 60.0775 136.64 59.8501C136.236 59.6226 135.769 59.5089 135.238 59.5089C134.657 59.5089 134.139 59.6395 133.684 59.9006C133.229 60.1617 132.871 60.5365 132.61 61.025C132.357 61.5136 132.231 62.0821 132.231 62.7307C132.231 63.3792 132.357 63.9478 132.61 64.4363C132.871 64.9248 133.229 65.3038 133.684 65.5734C134.139 65.8345 134.657 65.965 135.238 65.965C135.769 65.965 136.236 65.8513 136.64 65.6239C137.045 65.3965 137.361 65.0512 137.588 64.5879H139.319C138.99 65.4302 138.46 66.0787 137.727 66.5336C137.003 66.9884 136.173 67.2158 135.238 67.2158C134.413 67.2158 133.659 67.0263 132.976 66.6473C132.294 66.2598 131.751 65.725 131.347 65.0427C130.951 64.3605 130.753 63.5898 130.753 62.7307ZM145.01 67.2285C144.193 67.2285 143.439 67.0389 142.748 66.6599C142.066 66.2725 141.523 65.7376 141.118 65.0554C140.723 64.3647 140.525 63.5898 140.525 62.7307C140.525 61.8715 140.723 61.1008 141.118 60.4186C141.523 59.7363 142.066 59.2057 142.748 58.8267C143.439 58.4392 144.193 58.2455 145.01 58.2455C145.835 58.2455 146.589 58.4392 147.271 58.8267C147.962 59.2057 148.505 59.7363 148.901 60.4186C149.297 61.1008 149.495 61.8715 149.495 62.7307C149.495 63.5898 149.297 64.3647 148.901 65.0554C148.505 65.7376 147.962 66.2725 147.271 66.6599C146.589 67.0389 145.835 67.2285 145.01 67.2285ZM145.01 65.9777C145.591 65.9777 146.109 65.8471 146.564 65.586C147.019 65.3165 147.372 64.9374 147.625 64.4489C147.886 63.952 148.017 63.3792 148.017 62.7307C148.017 62.0821 147.886 61.5136 147.625 61.025C147.372 60.5365 147.019 60.1617 146.564 59.9006C146.109 59.6395 145.591 59.5089 145.01 59.5089C144.429 59.5089 143.911 59.6395 143.456 59.9006C143.001 60.1617 142.643 60.5365 142.382 61.025C142.129 61.5136 142.003 62.0821 142.003 62.7307C142.003 63.3792 142.129 63.952 142.382 64.4489C142.643 64.9374 143.001 65.3165 143.456 65.586C143.911 65.8471 144.429 65.9777 145.01 65.9777ZM158.126 67.14H156.686L152.353 60.5828V67.14H150.912V58.3466H152.353L156.686 64.8911V58.3466H158.126V67.14ZM162.911 67.2285C162.321 67.2285 161.791 67.1274 161.319 66.9252C160.847 66.7147 160.477 66.4199 160.207 66.0408C159.938 65.6618 159.803 65.2196 159.803 64.7142H161.344C161.378 65.0933 161.526 65.4049 161.787 65.6492C162.056 65.8934 162.431 66.0156 162.911 66.0156C163.408 66.0156 163.795 65.8976 164.073 65.6618C164.351 65.4175 164.49 65.1059 164.49 64.7269C164.49 64.4321 164.402 64.192 164.225 64.0067C164.057 63.8214 163.842 63.6782 163.581 63.5772C163.328 63.4761 162.974 63.3666 162.519 63.2487C161.947 63.0971 161.479 62.9454 161.117 62.7938C160.763 62.6338 160.46 62.3895 160.207 62.061C159.955 61.7326 159.828 61.2946 159.828 60.7471C159.828 60.2417 159.955 59.7995 160.207 59.4205C160.46 59.0415 160.814 58.7509 161.269 58.5487C161.723 58.3466 162.25 58.2455 162.848 58.2455C163.699 58.2455 164.394 58.4603 164.933 58.8898C165.48 59.311 165.783 59.8922 165.842 60.6334H164.25C164.225 60.3133 164.073 60.0396 163.795 59.8121C163.518 59.5847 163.151 59.471 162.696 59.471C162.284 59.471 161.947 59.5763 161.686 59.7869C161.424 59.9975 161.294 60.3007 161.294 60.6965C161.294 60.9661 161.374 61.1893 161.534 61.3662C161.702 61.5346 161.913 61.6694 162.166 61.7705C162.418 61.8715 162.764 61.981 163.202 62.0989C163.783 62.259 164.255 62.419 164.617 62.579C164.987 62.7391 165.299 62.9876 165.552 63.3245C165.813 63.653 165.943 64.0952 165.943 64.6511C165.943 65.0975 165.821 65.5186 165.577 65.9145C165.341 66.3104 164.992 66.6304 164.528 66.8747C164.073 67.1105 163.534 67.2285 162.911 67.2285ZM169.07 58.3592V63.9562C169.07 64.6216 169.243 65.1227 169.588 65.4597C169.942 65.7966 170.431 65.965 171.054 65.965C171.686 65.965 172.174 65.7966 172.52 65.4597C172.873 65.1227 173.05 64.6216 173.05 63.9562V58.3592H174.491V63.9309C174.491 64.6469 174.335 65.2533 174.023 65.7502C173.711 66.2472 173.295 66.6178 172.772 66.8621C172.25 67.1063 171.673 67.2285 171.041 67.2285C170.41 67.2285 169.833 67.1063 169.311 66.8621C168.797 66.6178 168.388 66.2472 168.085 65.7502C167.782 65.2533 167.63 64.6469 167.63 63.9309V58.3592H169.07ZM177.806 65.9777H180.775V67.14H176.366V58.3592H177.806V65.9777ZM187.653 58.3592V59.5342H185.315V67.14H183.875V59.5342H181.525V58.3592H187.653ZM190.551 58.3592V67.14H189.111V58.3592H190.551ZM199.657 67.14H198.216L193.883 60.5828V67.14H192.442V58.3466H193.883L198.216 64.8911V58.3466H199.657V67.14ZM207.903 60.8861C207.676 60.4481 207.36 60.1196 206.955 59.9006C206.551 59.6732 206.084 59.5595 205.553 59.5595C204.972 59.5595 204.454 59.69 203.999 59.9511C203.544 60.2122 203.186 60.5828 202.925 61.0629C202.672 61.543 202.546 62.0989 202.546 62.7307C202.546 63.3624 202.672 63.9225 202.925 64.411C203.186 64.8911 203.544 65.2617 203.999 65.5228C204.454 65.7839 204.972 65.9145 205.553 65.9145C206.336 65.9145 206.972 65.6955 207.461 65.2575C207.949 64.8195 208.248 64.2257 208.358 63.4761H205.06V62.3264H209.899V63.4508C209.807 64.1331 209.562 64.7606 209.166 65.3333C208.779 65.9061 208.269 66.3651 207.638 66.7105C207.014 67.0474 206.32 67.2158 205.553 67.2158C204.728 67.2158 203.974 67.0263 203.292 66.6473C202.609 66.2598 202.066 65.725 201.662 65.0427C201.266 64.3605 201.068 63.5898 201.068 62.7307C201.068 61.8715 201.266 61.1008 201.662 60.4186C202.066 59.7363 202.609 59.2057 203.292 58.8267C203.982 58.4392 204.736 58.2455 205.553 58.2455C206.488 58.2455 207.318 58.4771 208.042 58.9404C208.775 59.3952 209.305 60.0438 209.634 60.8861H207.903ZM221.386 67.14L220.3 66.0535C219.879 66.4746 219.42 66.7905 218.923 67.001C218.426 67.2032 217.87 67.3043 217.255 67.3043C216.632 67.3043 216.08 67.1948 215.6 66.9758C215.12 66.7568 214.749 66.4451 214.488 66.0408C214.227 65.6281 214.096 65.1522 214.096 64.6132C214.096 64.0067 214.269 63.4677 214.614 62.996C214.96 62.5159 215.474 62.1369 216.156 61.8589C215.912 61.5641 215.739 61.2904 215.638 61.0377C215.537 60.7766 215.486 60.4902 215.486 60.1785C215.486 59.7911 215.583 59.4458 215.777 59.1425C215.979 58.8393 216.265 58.5993 216.636 58.4224C217.006 58.2455 217.436 58.1571 217.925 58.1571C218.422 58.1571 218.843 58.2539 219.188 58.4476C219.542 58.633 219.803 58.8898 219.971 59.2183C220.148 59.5468 220.22 59.9132 220.186 60.3175H218.746C218.754 60.0059 218.678 59.7658 218.518 59.5974C218.358 59.4205 218.139 59.332 217.861 59.332C217.583 59.332 217.356 59.4163 217.179 59.5847C217.011 59.7448 216.926 59.9427 216.926 60.1785C216.926 60.406 216.99 60.6334 217.116 60.8608C217.251 61.0798 217.482 61.3662 217.811 61.7199L220.136 64.032L221.033 62.5538H222.587L221.45 64.4995L221.134 65.0175L223.269 67.14H221.386ZM217.255 66.0787C218.047 66.0787 218.746 65.7545 219.352 65.1059L217.028 62.7686C216.034 63.1644 215.537 63.7625 215.537 64.5626C215.537 64.9922 215.697 65.3544 216.017 65.6492C216.337 65.9355 216.75 66.0787 217.255 66.0787ZM232.789 65.346H229.112L228.481 67.14H226.977L230.123 58.3466H231.791L234.937 67.14H233.421L232.789 65.346ZM232.385 64.171L230.957 60.0901L229.517 64.171H232.385ZM239.173 58.3592C240.107 58.3592 240.924 58.5403 241.624 58.9025C242.331 59.2562 242.874 59.77 243.253 60.4439C243.641 61.1093 243.835 61.8884 243.835 62.7812C243.835 63.674 243.641 64.4489 243.253 65.1059C242.874 65.7629 242.331 66.2683 241.624 66.622C240.924 66.9673 240.107 67.14 239.173 67.14H236.305V58.3592H239.173ZM239.173 65.965C240.2 65.965 240.988 65.6871 241.535 65.1312C242.083 64.5753 242.356 63.7919 242.356 62.7812C242.356 61.762 242.083 60.9661 241.535 60.3933C240.988 59.8206 240.2 59.5342 239.173 59.5342H237.745V65.965H239.173ZM252.83 58.3592L249.532 67.14H247.865L244.555 58.3592H246.096L248.699 65.6618L251.314 58.3592H252.83ZM255.475 58.3592V67.14H254.034V58.3592H255.475ZM260.259 67.2285C259.669 67.2285 259.139 67.1274 258.667 66.9252C258.195 66.7147 257.825 66.4199 257.555 66.0408C257.286 65.6618 257.151 65.2196 257.151 64.7142H258.692C258.726 65.0933 258.873 65.4049 259.135 65.6492C259.404 65.8934 259.779 66.0156 260.259 66.0156C260.756 66.0156 261.143 65.8976 261.421 65.6618C261.699 65.4175 261.838 65.1059 261.838 64.7269C261.838 64.4321 261.75 64.192 261.573 64.0067C261.404 63.8214 261.19 63.6782 260.929 63.5772C260.676 63.4761 260.322 63.3666 259.867 63.2487C259.295 63.0971 258.827 62.9454 258.465 62.7938C258.111 62.6338 257.808 62.3895 257.555 62.061C257.303 61.7326 257.176 61.2946 257.176 60.7471C257.176 60.2417 257.303 59.7995 257.555 59.4205C257.808 59.0415 258.162 58.7509 258.617 58.5487C259.071 58.3466 259.598 58.2455 260.196 58.2455C261.047 58.2455 261.741 58.4603 262.28 58.8898C262.828 59.311 263.131 59.8922 263.19 60.6334H261.598C261.573 60.3133 261.421 60.0396 261.143 59.8121C260.865 59.5847 260.499 59.471 260.044 59.471C259.631 59.471 259.295 59.5763 259.033 59.7869C258.772 59.9975 258.642 60.3007 258.642 60.6965C258.642 60.9661 258.722 61.1893 258.882 61.3662C259.05 61.5346 259.261 61.6694 259.514 61.7705C259.766 61.8715 260.112 61.981 260.55 62.0989C261.131 62.259 261.602 62.419 261.965 62.579C262.335 62.7391 262.647 62.9876 262.9 63.3245C263.161 63.653 263.291 64.0952 263.291 64.6511C263.291 65.0975 263.169 65.5186 262.925 65.9145C262.689 66.3104 262.339 66.6304 261.876 66.8747C261.421 67.1105 260.882 67.2285 260.259 67.2285ZM266.431 58.3592V67.14H264.991V58.3592H266.431ZM275.536 67.14H274.096L269.762 60.5828V67.14H268.322V58.3466H269.762L274.096 64.8911V58.3466H275.536V67.14ZM283.783 60.8861C283.555 60.4481 283.239 60.1196 282.835 59.9006C282.431 59.6732 281.963 59.5595 281.433 59.5595C280.851 59.5595 280.333 59.69 279.879 59.9511C279.424 60.2122 279.066 60.5828 278.805 61.0629C278.552 61.543 278.426 62.0989 278.426 62.7307C278.426 63.3624 278.552 63.9225 278.805 64.411C279.066 64.8911 279.424 65.2617 279.879 65.5228C280.333 65.7839 280.851 65.9145 281.433 65.9145C282.216 65.9145 282.852 65.6955 283.34 65.2575C283.829 64.8195 284.128 64.2257 284.237 63.4761H280.94V62.3264H285.779V63.4508C285.686 64.1331 285.442 64.7606 285.046 65.3333C284.659 65.9061 284.149 66.3651 283.517 66.7105C282.894 67.0474 282.199 67.2158 281.433 67.2158C280.607 67.2158 279.853 67.0263 279.171 66.6473C278.489 66.2598 277.946 65.725 277.541 65.0427C277.145 64.3605 276.947 63.5898 276.947 62.7307C276.947 61.8715 277.145 61.1008 277.541 60.4186C277.946 59.7363 278.489 59.2057 279.171 58.8267C279.862 58.4392 280.616 58.2455 281.433 58.2455C282.368 58.2455 283.197 58.4771 283.922 58.9404C284.654 59.3952 285.185 60.0438 285.513 60.8861H283.783Z" fill="#5109C9"/>
<path d="M184.165 134.79C184.165 133.931 184.363 133.161 184.759 132.478C185.163 131.796 185.706 131.266 186.389 130.886C187.079 130.499 187.833 130.305 188.65 130.305C189.585 130.305 190.415 130.537 191.139 131C191.872 131.455 192.403 132.104 192.731 132.946H191C190.773 132.483 190.457 132.137 190.053 131.91C189.648 131.682 189.181 131.569 188.65 131.569C188.069 131.569 187.551 131.699 187.096 131.96C186.641 132.222 186.283 132.596 186.022 133.085C185.77 133.573 185.643 134.142 185.643 134.79C185.643 135.439 185.77 136.008 186.022 136.496C186.283 136.985 186.641 137.364 187.096 137.633C187.551 137.894 188.069 138.025 188.65 138.025C189.181 138.025 189.648 137.911 190.053 137.684C190.457 137.456 190.773 137.111 191 136.648H192.731C192.403 137.49 191.872 138.139 191.139 138.593C190.415 139.048 189.585 139.276 188.65 139.276C187.825 139.276 187.071 139.086 186.389 138.707C185.706 138.32 185.163 137.785 184.759 137.103C184.363 136.42 184.165 135.65 184.165 134.79ZM195.857 138.037H198.826V139.2H194.417V130.419H195.857V138.037ZM201.471 130.419V139.2H200.031V130.419H201.471ZM204.802 131.581V134.159H207.835V135.334H204.802V138.025H208.214V139.2H203.362V130.406H208.214V131.581H204.802ZM217.202 139.2H215.761L211.428 132.643V139.2H209.988V130.406H211.428L215.761 136.951V130.406H217.202V139.2ZM224.766 130.419V131.594H222.429V139.2H220.988V131.594H218.638V130.419H224.766ZM229.118 139.288C228.528 139.288 227.998 139.187 227.526 138.985C227.054 138.774 226.684 138.48 226.414 138.101C226.145 137.722 226.01 137.279 226.01 136.774H227.551C227.585 137.153 227.732 137.465 227.993 137.709C228.263 137.953 228.638 138.075 229.118 138.075C229.615 138.075 230.002 137.957 230.28 137.722C230.558 137.477 230.697 137.166 230.697 136.787C230.697 136.492 230.609 136.252 230.432 136.067C230.263 135.881 230.049 135.738 229.787 135.637C229.535 135.536 229.181 135.426 228.726 135.308C228.153 135.157 227.686 135.005 227.324 134.854C226.97 134.694 226.667 134.449 226.414 134.121C226.161 133.792 226.035 133.354 226.035 132.807C226.035 132.302 226.161 131.859 226.414 131.48C226.667 131.101 227.021 130.811 227.475 130.609C227.93 130.406 228.457 130.305 229.055 130.305C229.905 130.305 230.6 130.52 231.139 130.95C231.687 131.371 231.99 131.952 232.049 132.693H230.457C230.432 132.373 230.28 132.099 230.002 131.872C229.724 131.645 229.358 131.531 228.903 131.531C228.49 131.531 228.153 131.636 227.892 131.847C227.631 132.057 227.501 132.36 227.501 132.756C227.501 133.026 227.581 133.249 227.741 133.426C227.909 133.594 228.12 133.729 228.372 133.83C228.625 133.931 228.97 134.041 229.408 134.159C229.99 134.319 230.461 134.479 230.823 134.639C231.194 134.799 231.506 135.047 231.758 135.384C232.02 135.713 232.15 136.155 232.15 136.711C232.15 137.157 232.028 137.578 231.784 137.974C231.548 138.37 231.198 138.69 230.735 138.935C230.28 139.17 229.741 139.288 229.118 139.288Z" fill="#262626"/>
<path d="M234.513 237.205C234.513 236.655 234.639 236.162 234.893 235.725C235.152 235.289 235.499 234.949 235.936 234.706C236.378 234.458 236.861 234.334 237.384 234.334C237.982 234.334 238.513 234.482 238.977 234.779C239.446 235.07 239.786 235.485 239.996 236.025H238.888C238.742 235.728 238.54 235.507 238.281 235.361C238.023 235.216 237.723 235.143 237.384 235.143C237.012 235.143 236.68 235.227 236.389 235.394C236.098 235.561 235.869 235.801 235.701 236.113C235.54 236.426 235.459 236.79 235.459 237.205C235.459 237.62 235.54 237.984 235.701 238.297C235.869 238.61 236.098 238.852 236.389 239.025C236.68 239.192 237.012 239.276 237.384 239.276C237.723 239.276 238.023 239.203 238.281 239.057C238.54 238.912 238.742 238.691 238.888 238.394H239.996C239.786 238.933 239.446 239.349 238.977 239.64C238.513 239.931 237.982 240.076 237.384 240.076C236.855 240.076 236.373 239.955 235.936 239.712C235.499 239.464 235.152 239.122 234.893 238.685C234.639 238.249 234.513 237.755 234.513 237.205ZM243.008 240.101C242.588 240.101 242.207 240.006 241.868 239.818C241.528 239.623 241.261 239.354 241.067 239.009C240.873 238.658 240.776 238.254 240.776 237.796C240.776 237.343 240.876 236.941 241.075 236.591C241.275 236.24 241.547 235.971 241.892 235.782C242.237 235.593 242.623 235.499 243.049 235.499C243.475 235.499 243.86 235.593 244.205 235.782C244.55 235.971 244.822 236.24 245.022 236.591C245.221 236.941 245.321 237.343 245.321 237.796C245.321 238.249 245.219 238.65 245.014 239.001C244.809 239.351 244.529 239.623 244.173 239.818C243.822 240.006 243.434 240.101 243.008 240.101ZM243.008 239.3C243.245 239.3 243.466 239.243 243.671 239.13C243.882 239.017 244.051 238.847 244.181 238.621C244.31 238.394 244.375 238.119 244.375 237.796C244.375 237.472 244.313 237.2 244.189 236.979C244.065 236.752 243.9 236.583 243.696 236.469C243.491 236.356 243.27 236.299 243.032 236.299C242.795 236.299 242.574 236.356 242.369 236.469C242.17 236.583 242.011 236.752 241.892 236.979C241.773 237.2 241.714 237.472 241.714 237.796C241.714 238.276 241.835 238.648 242.078 238.912C242.326 239.171 242.636 239.3 243.008 239.3ZM247.155 236.219C247.289 235.992 247.467 235.817 247.688 235.693C247.915 235.564 248.182 235.499 248.489 235.499V236.453H248.254C247.893 236.453 247.618 236.545 247.43 236.728C247.246 236.911 247.155 237.23 247.155 237.682V240.028H246.233V235.572H247.155V236.219ZM250.259 236.227C250.415 236.022 250.628 235.849 250.897 235.709C251.167 235.569 251.472 235.499 251.811 235.499C252.2 235.499 252.553 235.596 252.871 235.79C253.194 235.979 253.448 236.246 253.631 236.591C253.814 236.936 253.906 237.332 253.906 237.78C253.906 238.227 253.814 238.629 253.631 238.985C253.448 239.335 253.194 239.61 252.871 239.809C252.553 240.004 252.2 240.101 251.811 240.101C251.472 240.101 251.17 240.033 250.906 239.898C250.641 239.758 250.426 239.586 250.259 239.381V242.147H249.337V235.572H250.259V236.227ZM252.968 237.78C252.968 237.472 252.903 237.208 252.774 236.987C252.65 236.76 252.483 236.591 252.272 236.477C252.067 236.359 251.846 236.299 251.609 236.299C251.377 236.299 251.156 236.359 250.946 236.477C250.741 236.596 250.574 236.769 250.445 236.995C250.321 237.221 250.259 237.488 250.259 237.796C250.259 238.103 250.321 238.373 250.445 238.604C250.574 238.831 250.741 239.003 250.946 239.122C251.156 239.241 251.377 239.3 251.609 239.3C251.846 239.3 252.067 239.241 252.272 239.122C252.483 238.998 252.65 238.82 252.774 238.588C252.903 238.356 252.968 238.087 252.968 237.78ZM256.751 240.101C256.33 240.101 255.95 240.006 255.61 239.818C255.271 239.623 255.004 239.354 254.81 239.009C254.616 238.658 254.519 238.254 254.519 237.796C254.519 237.343 254.618 236.941 254.818 236.591C255.017 236.24 255.29 235.971 255.635 235.782C255.98 235.593 256.365 235.499 256.791 235.499C257.217 235.499 257.603 235.593 257.948 235.782C258.293 235.971 258.565 236.24 258.764 236.591C258.964 236.941 259.064 237.343 259.064 237.796C259.064 238.249 258.961 238.65 258.756 239.001C258.552 239.351 258.271 239.623 257.915 239.818C257.565 240.006 257.177 240.101 256.751 240.101ZM256.751 239.3C256.988 239.3 257.209 239.243 257.414 239.13C257.624 239.017 257.794 238.847 257.923 238.621C258.053 238.394 258.117 238.119 258.117 237.796C258.117 237.472 258.055 237.2 257.931 236.979C257.807 236.752 257.643 236.583 257.438 236.469C257.233 236.356 257.012 236.299 256.775 236.299C256.538 236.299 256.317 236.356 256.112 236.469C255.912 236.583 255.753 236.752 255.635 236.979C255.516 237.2 255.457 237.472 255.457 237.796C255.457 238.276 255.578 238.648 255.821 238.912C256.069 239.171 256.379 239.3 256.751 239.3ZM260.897 236.219C261.032 235.992 261.21 235.817 261.431 235.693C261.657 235.564 261.924 235.499 262.232 235.499V236.453H261.997C261.636 236.453 261.361 236.545 261.172 236.728C260.989 236.911 260.897 237.23 260.897 237.682V240.028H259.975V235.572H260.897V236.219ZM262.772 237.78C262.772 237.332 262.863 236.936 263.047 236.591C263.235 236.246 263.489 235.979 263.807 235.79C264.13 235.596 264.486 235.499 264.875 235.499C265.225 235.499 265.53 235.569 265.788 235.709C266.053 235.844 266.263 236.014 266.419 236.219V235.572H267.349V240.028H266.419V239.365C266.263 239.575 266.05 239.75 265.78 239.89C265.511 240.031 265.203 240.101 264.858 240.101C264.476 240.101 264.125 240.004 263.807 239.809C263.489 239.61 263.235 239.335 263.047 238.985C262.863 238.629 262.772 238.227 262.772 237.78ZM266.419 237.796C266.419 237.488 266.355 237.221 266.225 236.995C266.101 236.769 265.937 236.596 265.732 236.477C265.527 236.359 265.306 236.299 265.069 236.299C264.831 236.299 264.61 236.359 264.405 236.477C264.201 236.591 264.033 236.76 263.904 236.987C263.78 237.208 263.718 237.472 263.718 237.78C263.718 238.087 263.78 238.356 263.904 238.588C264.033 238.82 264.201 238.998 264.405 239.122C264.616 239.241 264.837 239.3 265.069 239.3C265.306 239.3 265.527 239.241 265.732 239.122C265.937 239.003 266.101 238.831 266.225 238.604C266.355 238.373 266.419 238.103 266.419 237.796ZM269.636 236.324V238.79C269.636 238.958 269.674 239.079 269.749 239.154C269.83 239.224 269.965 239.26 270.154 239.26H270.72V240.028H269.992C269.577 240.028 269.259 239.931 269.037 239.737C268.816 239.543 268.706 239.227 268.706 238.79V236.324H268.18V235.572H268.706V234.464H269.636V235.572H270.72V236.324H269.636ZM275.654 237.691C275.654 237.858 275.643 238.009 275.621 238.143H272.216C272.243 238.499 272.376 238.785 272.613 239.001C272.85 239.216 273.141 239.324 273.486 239.324C273.982 239.324 274.333 239.117 274.538 238.701H275.532C275.398 239.111 275.152 239.448 274.796 239.712C274.446 239.971 274.009 240.101 273.486 240.101C273.06 240.101 272.677 240.006 272.338 239.818C272.004 239.623 271.739 239.354 271.545 239.009C271.356 238.658 271.262 238.254 271.262 237.796C271.262 237.337 271.354 236.936 271.537 236.591C271.726 236.24 271.987 235.971 272.322 235.782C272.661 235.593 273.049 235.499 273.486 235.499C273.907 235.499 274.282 235.59 274.61 235.774C274.939 235.957 275.195 236.216 275.379 236.55C275.562 236.879 275.654 237.259 275.654 237.691ZM274.691 237.399C274.686 237.06 274.565 236.787 274.327 236.583C274.09 236.378 273.796 236.275 273.446 236.275C273.128 236.275 272.855 236.378 272.629 236.583C272.402 236.782 272.268 237.054 272.225 237.399H274.691Z" fill="#262626"/>
<path d="M241.628 249.79C241.251 249.79 240.911 249.725 240.609 249.595C240.307 249.461 240.07 249.272 239.898 249.029C239.725 248.787 239.639 248.504 239.639 248.18H240.625C240.647 248.423 240.741 248.622 240.909 248.779C241.081 248.935 241.321 249.013 241.628 249.013C241.946 249.013 242.194 248.938 242.372 248.787C242.55 248.63 242.639 248.431 242.639 248.188C242.639 248 242.583 247.846 242.469 247.727C242.362 247.609 242.224 247.517 242.057 247.452C241.895 247.388 241.669 247.317 241.378 247.242C241.011 247.145 240.712 247.048 240.48 246.951C240.253 246.848 240.059 246.692 239.898 246.482C239.736 246.271 239.655 245.991 239.655 245.641C239.655 245.317 239.736 245.034 239.898 244.791C240.059 244.549 240.286 244.363 240.577 244.233C240.868 244.104 241.205 244.039 241.588 244.039C242.132 244.039 242.577 244.177 242.922 244.452C243.273 244.721 243.467 245.093 243.505 245.568H242.486C242.469 245.363 242.372 245.188 242.194 245.042C242.017 244.897 241.782 244.824 241.491 244.824C241.227 244.824 241.011 244.891 240.844 245.026C240.677 245.161 240.593 245.355 240.593 245.608C240.593 245.781 240.644 245.924 240.747 246.037C240.855 246.145 240.989 246.231 241.151 246.296C241.313 246.36 241.534 246.431 241.814 246.506C242.186 246.608 242.488 246.711 242.72 246.813C242.957 246.916 243.157 247.075 243.319 247.29C243.486 247.501 243.569 247.784 243.569 248.14C243.569 248.425 243.491 248.695 243.335 248.948C243.184 249.202 242.96 249.407 242.664 249.563C242.372 249.714 242.027 249.79 241.628 249.79ZM248.741 247.396C248.741 247.563 248.731 247.714 248.709 247.849H245.304C245.331 248.204 245.463 248.49 245.701 248.706C245.938 248.921 246.229 249.029 246.574 249.029C247.07 249.029 247.42 248.822 247.625 248.407H248.62C248.485 248.816 248.24 249.153 247.884 249.418C247.534 249.676 247.097 249.806 246.574 249.806C246.148 249.806 245.765 249.711 245.426 249.523C245.091 249.329 244.827 249.059 244.633 248.714C244.444 248.363 244.35 247.959 244.35 247.501C244.35 247.042 244.442 246.641 244.625 246.296C244.814 245.945 245.075 245.676 245.409 245.487C245.749 245.298 246.137 245.204 246.574 245.204C246.995 245.204 247.369 245.296 247.698 245.479C248.027 245.662 248.283 245.921 248.466 246.255C248.65 246.584 248.741 246.964 248.741 247.396ZM247.779 247.104C247.774 246.765 247.652 246.493 247.415 246.288C247.178 246.083 246.884 245.98 246.534 245.98C246.215 245.98 245.943 246.083 245.717 246.288C245.49 246.487 245.355 246.759 245.312 247.104H247.779ZM250.571 245.924C250.706 245.697 250.883 245.522 251.105 245.398C251.331 245.269 251.598 245.204 251.905 245.204V246.158H251.671C251.309 246.158 251.034 246.25 250.846 246.433C250.662 246.617 250.571 246.935 250.571 247.388V249.733H249.649V245.277H250.571V245.924ZM254.475 248.908L255.737 245.277H256.716L255.017 249.733H253.917L252.227 245.277H253.214L254.475 248.908ZM257.882 244.686C257.714 244.686 257.574 244.63 257.461 244.516C257.348 244.403 257.291 244.263 257.291 244.096C257.291 243.929 257.348 243.789 257.461 243.675C257.574 243.562 257.714 243.506 257.882 243.506C258.043 243.506 258.181 243.562 258.294 243.675C258.407 243.789 258.464 243.929 258.464 244.096C258.464 244.263 258.407 244.403 258.294 244.516C258.181 244.63 258.043 244.686 257.882 244.686ZM258.335 245.277V249.733H257.413V245.277H258.335ZM259.238 247.501C259.238 247.042 259.329 246.641 259.513 246.296C259.701 245.945 259.96 245.676 260.289 245.487C260.618 245.298 260.995 245.204 261.421 245.204C261.96 245.204 262.405 245.333 262.756 245.592C263.112 245.846 263.352 246.209 263.476 246.684H262.481C262.4 246.463 262.271 246.29 262.093 246.166C261.915 246.042 261.691 245.98 261.421 245.98C261.044 245.98 260.742 246.115 260.516 246.385C260.294 246.649 260.184 247.021 260.184 247.501C260.184 247.981 260.294 248.355 260.516 248.625C260.742 248.895 261.044 249.029 261.421 249.029C261.955 249.029 262.308 248.795 262.481 248.326H263.476C263.346 248.779 263.104 249.14 262.748 249.409C262.392 249.674 261.95 249.806 261.421 249.806C260.995 249.806 260.618 249.711 260.289 249.523C259.96 249.329 259.701 249.059 259.513 248.714C259.329 248.363 259.238 247.959 259.238 247.501ZM268.479 247.396C268.479 247.563 268.468 247.714 268.446 247.849H265.041C265.068 248.204 265.2 248.49 265.438 248.706C265.675 248.921 265.966 249.029 266.311 249.029C266.807 249.029 267.158 248.822 267.363 248.407H268.357C268.223 248.816 267.977 249.153 267.621 249.418C267.271 249.676 266.834 249.806 266.311 249.806C265.885 249.806 265.502 249.711 265.163 249.523C264.828 249.329 264.564 249.059 264.37 248.714C264.181 248.363 264.087 247.959 264.087 247.501C264.087 247.042 264.179 246.641 264.362 246.296C264.551 245.945 264.812 245.676 265.147 245.487C265.486 245.298 265.874 245.204 266.311 245.204C266.732 245.204 267.106 245.296 267.435 245.479C267.764 245.662 268.02 245.921 268.204 246.255C268.387 246.584 268.479 246.964 268.479 247.396ZM267.516 247.104C267.511 246.765 267.389 246.493 267.152 246.288C266.915 246.083 266.621 245.98 266.271 245.98C265.953 245.98 265.68 246.083 265.454 246.288C265.227 246.487 265.093 246.759 265.049 247.104H267.516ZM271.003 249.806C270.653 249.806 270.338 249.744 270.057 249.62C269.782 249.49 269.564 249.318 269.402 249.102C269.24 248.881 269.154 248.636 269.143 248.366H270.098C270.114 248.555 270.203 248.714 270.365 248.843C270.532 248.967 270.739 249.029 270.987 249.029C271.246 249.029 271.446 248.981 271.586 248.884C271.731 248.781 271.804 248.652 271.804 248.496C271.804 248.328 271.723 248.204 271.562 248.124C271.405 248.043 271.154 247.954 270.809 247.857C270.475 247.765 270.203 247.676 269.993 247.59C269.782 247.503 269.599 247.371 269.443 247.193C269.292 247.016 269.216 246.781 269.216 246.49C269.216 246.253 269.286 246.037 269.426 245.843C269.567 245.643 269.766 245.487 270.025 245.374C270.289 245.261 270.591 245.204 270.931 245.204C271.437 245.204 271.845 245.333 272.152 245.592C272.465 245.846 272.632 246.193 272.653 246.635H271.731C271.715 246.436 271.634 246.277 271.489 246.158C271.343 246.04 271.146 245.98 270.898 245.98C270.656 245.98 270.47 246.026 270.34 246.118C270.211 246.209 270.146 246.331 270.146 246.482C270.146 246.6 270.189 246.7 270.276 246.781C270.362 246.862 270.467 246.927 270.591 246.975C270.715 247.018 270.898 247.075 271.141 247.145C271.464 247.231 271.729 247.32 271.934 247.412C272.144 247.498 272.324 247.627 272.475 247.8C272.626 247.973 272.705 248.202 272.71 248.487C272.71 248.741 272.64 248.967 272.5 249.167C272.359 249.366 272.16 249.523 271.901 249.636C271.648 249.749 271.349 249.806 271.003 249.806Z" fill="#262626"/>
<path d="M329.794 235.628V236.38H328.298V241.249H327.376V236.38H325.872V235.628H329.794ZM334.812 238.911C334.812 239.079 334.801 239.23 334.78 239.364H331.375C331.402 239.72 331.534 240.006 331.771 240.222C332.008 240.437 332.299 240.545 332.645 240.545C333.141 240.545 333.491 240.338 333.696 239.922H334.691C334.556 240.332 334.311 240.669 333.955 240.933C333.604 241.192 333.168 241.322 332.645 241.322C332.219 241.322 331.836 241.227 331.496 241.039C331.162 240.844 330.898 240.575 330.704 240.23C330.515 239.879 330.42 239.475 330.42 239.017C330.42 238.558 330.512 238.157 330.695 237.812C330.884 237.461 331.146 237.192 331.48 237.003C331.82 236.814 332.208 236.72 332.645 236.72C333.065 236.72 333.44 236.811 333.769 236.995C334.098 237.178 334.354 237.437 334.537 237.771C334.72 238.1 334.812 238.48 334.812 238.911ZM333.85 238.62C333.844 238.281 333.723 238.008 333.486 237.804C333.248 237.599 332.955 237.496 332.604 237.496C332.286 237.496 332.014 237.599 331.787 237.804C331.561 238.003 331.426 238.275 331.383 238.62H333.85ZM335.412 239.017C335.412 238.558 335.504 238.157 335.687 237.812C335.876 237.461 336.134 237.192 336.463 237.003C336.792 236.814 337.17 236.72 337.596 236.72C338.135 236.72 338.58 236.849 338.93 237.108C339.286 237.361 339.526 237.725 339.65 238.2H338.655C338.574 237.979 338.445 237.806 338.267 237.682C338.089 237.558 337.865 237.496 337.596 237.496C337.218 237.496 336.916 237.631 336.69 237.901C336.469 238.165 336.358 238.537 336.358 239.017C336.358 239.497 336.469 239.871 336.69 240.141C336.916 240.41 337.218 240.545 337.596 240.545C338.129 240.545 338.483 240.311 338.655 239.842H339.65C339.52 240.294 339.278 240.656 338.922 240.925C338.566 241.19 338.124 241.322 337.596 241.322C337.17 241.322 336.792 241.227 336.463 241.039C336.134 240.844 335.876 240.575 335.687 240.23C335.504 239.879 335.412 239.475 335.412 239.017ZM342.874 236.72C343.213 236.72 343.515 236.793 343.779 236.938C344.049 237.084 344.259 237.299 344.41 237.585C344.567 237.871 344.645 238.216 344.645 238.62V241.249H343.731V238.758C343.731 238.359 343.631 238.054 343.432 237.844C343.232 237.628 342.96 237.52 342.615 237.52C342.27 237.52 341.995 237.628 341.79 237.844C341.59 238.054 341.491 238.359 341.491 238.758V241.249H340.569V235.264H341.491V237.31C341.647 237.121 341.844 236.976 342.081 236.873C342.324 236.771 342.588 236.72 342.874 236.72ZM348.069 236.72C348.42 236.72 348.732 236.793 349.007 236.938C349.288 237.084 349.506 237.299 349.663 237.585C349.819 237.871 349.897 238.216 349.897 238.62V241.249H348.983V238.758C348.983 238.359 348.883 238.054 348.684 237.844C348.484 237.628 348.212 237.52 347.867 237.52C347.522 237.52 347.247 237.628 347.042 237.844C346.843 238.054 346.743 238.359 346.743 238.758V241.249H345.821V236.793H346.743V237.302C346.894 237.119 347.085 236.976 347.317 236.873C347.554 236.771 347.805 236.72 348.069 236.72ZM353.006 241.322C352.585 241.322 352.205 241.227 351.866 241.039C351.526 240.844 351.259 240.575 351.065 240.23C350.871 239.879 350.774 239.475 350.774 239.017C350.774 238.564 350.874 238.162 351.073 237.812C351.273 237.461 351.545 237.192 351.89 237.003C352.235 236.814 352.621 236.72 353.046 236.72C353.472 236.72 353.858 236.814 354.203 237.003C354.548 237.192 354.82 237.461 355.02 237.812C355.219 238.162 355.319 238.564 355.319 239.017C355.319 239.47 355.217 239.871 355.012 240.222C354.807 240.572 354.526 240.844 354.171 241.039C353.82 241.227 353.432 241.322 353.006 241.322ZM353.006 240.521C353.243 240.521 353.464 240.464 353.669 240.351C353.879 240.238 354.049 240.068 354.179 239.842C354.308 239.615 354.373 239.34 354.373 239.017C354.373 238.693 354.311 238.421 354.187 238.2C354.063 237.973 353.898 237.804 353.693 237.69C353.489 237.577 353.268 237.52 353.03 237.52C352.793 237.52 352.572 237.577 352.367 237.69C352.168 237.804 352.009 237.973 351.89 238.2C351.771 238.421 351.712 238.693 351.712 239.017C351.712 239.497 351.833 239.869 352.076 240.133C352.324 240.392 352.634 240.521 353.006 240.521ZM357.152 235.264V241.249H356.231V235.264H357.152ZM360.296 241.322C359.875 241.322 359.495 241.227 359.156 241.039C358.816 240.844 358.549 240.575 358.355 240.23C358.161 239.879 358.064 239.475 358.064 239.017C358.064 238.564 358.163 238.162 358.363 237.812C358.562 237.461 358.835 237.192 359.18 237.003C359.525 236.814 359.91 236.72 360.336 236.72C360.762 236.72 361.148 236.814 361.493 237.003C361.838 237.192 362.11 237.461 362.31 237.812C362.509 238.162 362.609 238.564 362.609 239.017C362.609 239.47 362.507 239.871 362.302 240.222C362.097 240.572 361.816 240.844 361.461 241.039C361.11 241.227 360.722 241.322 360.296 241.322ZM360.296 240.521C360.533 240.521 360.754 240.464 360.959 240.351C361.169 240.238 361.339 240.068 361.469 239.842C361.598 239.615 361.663 239.34 361.663 239.017C361.663 238.693 361.601 238.421 361.477 238.2C361.353 237.973 361.188 237.804 360.983 237.69C360.778 237.577 360.557 237.52 360.32 237.52C360.083 237.52 359.862 237.577 359.657 237.69C359.457 237.804 359.298 237.973 359.18 238.2C359.061 238.421 359.002 238.693 359.002 239.017C359.002 239.497 359.123 239.869 359.366 240.133C359.614 240.392 359.924 240.521 360.296 240.521ZM365.316 236.72C365.661 236.72 365.966 236.79 366.23 236.93C366.499 237.065 366.71 237.235 366.861 237.44V236.793H367.791V241.322C367.791 241.731 367.704 242.095 367.532 242.413C367.359 242.737 367.109 242.99 366.78 243.174C366.456 243.357 366.068 243.449 365.615 243.449C365.011 243.449 364.51 243.306 364.111 243.02C363.712 242.74 363.485 242.357 363.431 241.872H364.345C364.415 242.103 364.564 242.289 364.79 242.43C365.022 242.575 365.297 242.648 365.615 242.648C365.987 242.648 366.286 242.535 366.513 242.308C366.745 242.082 366.861 241.753 366.861 241.322V240.578C366.704 240.788 366.491 240.966 366.222 241.111C365.957 241.252 365.656 241.322 365.316 241.322C364.928 241.322 364.572 241.225 364.248 241.03C363.93 240.831 363.677 240.556 363.488 240.206C363.305 239.85 363.213 239.448 363.213 239C363.213 238.553 363.305 238.157 363.488 237.812C363.677 237.467 363.93 237.2 364.248 237.011C364.572 236.817 364.928 236.72 365.316 236.72ZM366.861 239.017C366.861 238.709 366.796 238.442 366.666 238.216C366.542 237.99 366.378 237.817 366.173 237.698C365.968 237.58 365.747 237.52 365.51 237.52C365.273 237.52 365.052 237.58 364.847 237.698C364.642 237.812 364.475 237.981 364.345 238.208C364.221 238.429 364.159 238.693 364.159 239C364.159 239.308 364.221 239.577 364.345 239.809C364.475 240.041 364.642 240.219 364.847 240.343C365.057 240.462 365.278 240.521 365.51 240.521C365.747 240.521 365.968 240.462 366.173 240.343C366.378 240.224 366.542 240.052 366.666 239.825C366.796 239.594 366.861 239.324 366.861 239.017ZM373.013 236.793L370.279 243.343H369.325L370.231 241.176L368.476 236.793H369.503L370.757 240.189L372.059 236.793H373.013Z" fill="#262626"/>
<path d="M191.002 193.123C191.002 199.678 188.946 205.757 185.442 210.747C185.221 211.066 184.991 211.379 184.752 211.69C184.169 212.463 183.547 213.207 182.888 213.92C182.632 214.202 182.367 214.477 182.098 214.749C176.532 220.358 168.818 223.835 160.29 223.835C143.329 223.835 129.58 210.083 129.58 193.123C129.58 176.162 143.329 162.41 160.29 162.41C177.25 162.41 191.002 176.162 191.002 193.123Z" fill="white" stroke="#010101" stroke-width="1.03687" stroke-miterlimit="10"/>
<path d="M253.017 223.835C269.979 223.835 283.729 210.084 283.729 193.123C283.729 176.161 269.979 162.41 253.017 162.41C236.055 162.41 222.305 176.161 222.305 193.123C222.305 210.084 236.055 223.835 253.017 223.835Z" fill="white" stroke="#262626" stroke-width="1.03687" stroke-miterlimit="10"/>
<path d="M345.747 223.835C362.709 223.835 376.459 210.084 376.459 193.123C376.459 176.161 362.709 162.41 345.747 162.41C328.785 162.41 315.035 176.161 315.035 193.123C315.035 210.084 328.785 223.835 345.747 223.835Z" fill="#5109C9"/>
<path d="M173.25 190.779C171.786 189.317 169.751 188.405 167.517 188.405C165.282 188.405 163.268 189.317 161.785 190.779C160.331 192.244 159.429 194.268 159.429 196.503C159.429 198.737 160.331 200.772 161.785 202.234C163.268 203.699 165.282 204.611 167.517 204.611C169.751 204.611 171.786 203.699 173.25 202.234C174.702 200.772 175.614 198.737 175.614 196.503C175.614 194.268 174.702 192.244 173.25 190.779ZM164.818 202.903C164.735 202.869 164.655 202.83 164.574 202.791C164.473 202.745 164.372 202.693 164.274 202.638C163.659 202.312 163.102 201.892 162.617 201.402C161.355 200.15 160.582 198.416 160.582 196.503C160.582 194.59 161.355 192.845 162.617 191.583C163.869 190.328 165.604 189.558 167.517 189.558C169.225 189.558 170.788 190.162 171.993 191.178C172.068 191.241 172.144 191.303 172.216 191.37C172.291 191.44 172.366 191.51 172.439 191.583C173.691 192.845 174.461 194.579 174.461 196.503C174.461 198.426 173.691 200.15 172.439 201.402C171.184 202.667 169.443 203.457 167.517 203.457C166.679 203.457 165.876 203.307 165.132 203.03C165.025 202.991 164.922 202.947 164.818 202.903Z" fill="#5109C9" stroke="#5109C9" stroke-width="0.0648043" stroke-miterlimit="10"/>
<path d="M177.317 201.954C178.492 199.86 178.943 197.485 178.642 195.16C178.37 192.754 177.307 190.419 175.443 188.576C175.415 188.545 175.373 188.516 175.345 188.475C174.974 188.112 174.596 187.793 174.194 187.492C172.221 186.03 169.875 185.289 167.519 185.289C164.665 185.289 161.788 186.391 159.592 188.576C157.409 190.761 156.305 193.636 156.305 196.503C156.305 199.37 157.409 202.255 159.592 204.44C161.448 206.273 163.781 207.346 166.197 207.636C168.501 207.906 170.886 207.465 172.97 206.314L173.732 207.066C173.872 207.206 174.023 207.315 174.194 207.395C174.463 207.545 174.764 207.615 175.065 207.615C175.166 207.615 175.254 207.605 175.345 207.587C175.505 207.576 175.653 207.527 175.793 207.465H175.796C176.016 207.377 176.226 207.234 176.397 207.066L176.716 206.755V206.744L177.779 205.702L178.1 205.381C178.271 205.202 178.401 204.989 178.481 204.779C178.58 204.538 178.632 204.29 178.632 204.038C178.632 203.559 178.46 203.076 178.1 202.716L177.317 201.954ZM175.583 206.254C175.544 206.283 175.505 206.324 175.464 206.343H175.454C175.334 206.423 175.205 206.464 175.062 206.464C174.883 206.464 174.691 206.394 174.551 206.254L173.159 204.849L172.758 205.091C170.803 206.293 168.53 206.755 166.314 206.503C164.159 206.244 162.065 205.282 160.411 203.608C158.449 201.643 157.477 199.087 157.477 196.503C157.477 193.918 158.449 191.362 160.411 189.387C162.376 187.422 164.953 186.44 167.516 186.44C170.08 186.44 172.677 187.422 174.642 189.387C176.286 191.051 177.247 193.135 177.509 195.3C177.768 197.506 177.307 199.79 176.115 201.754L175.876 202.135L177.268 203.527C177.408 203.678 177.478 203.849 177.478 204.038C177.478 204.227 177.408 204.419 177.268 204.559L176.426 205.412L175.583 206.254Z" fill="#5109C9" stroke="#5109C9" stroke-width="0.0648043" stroke-miterlimit="10"/>
<path d="M180.524 208.066C180.895 208.066 181.276 208.199 181.558 208.499L184.752 211.69C184.99 211.379 185.221 211.066 185.441 210.747L182.359 207.667C181.877 207.185 181.237 206.934 180.604 206.915H180.534C179.954 206.915 179.373 207.105 178.911 207.475L178.702 207.667C178.632 207.737 178.572 207.807 178.52 207.867C178.121 208.349 177.919 208.919 177.919 209.51V209.591C177.939 210.231 178.201 210.874 178.702 211.353L182.097 214.749C182.367 214.477 182.631 214.202 182.888 213.92L179.503 210.542C179.233 210.252 179.072 209.891 179.072 209.51C179.072 209.129 179.233 208.769 179.503 208.499C179.782 208.199 180.153 208.066 180.524 208.066Z" fill="#5109C9" stroke="#5109C9" stroke-width="0.0648043" stroke-miterlimit="10"/>
<path d="M180.604 206.915L178.481 204.779L177.719 204.017L177.307 204.538C177.016 204.831 176.716 205.122 176.425 205.412C176.135 205.692 175.834 205.982 175.544 206.273L175.464 206.343H175.453L175.033 206.705L177.919 209.591L178.52 210.202L178.872 209.409C178.942 209.248 179.023 209.098 179.132 208.93C179.251 208.769 179.373 208.629 179.502 208.499V208.479C179.642 208.339 179.793 208.217 179.953 208.118C180.104 208.017 180.264 207.926 180.436 207.856L181.205 207.517L180.604 206.915ZM178.701 207.667C178.631 207.737 178.572 207.807 178.52 207.867C178.401 207.996 178.3 208.118 178.219 208.237L176.716 206.755V206.744L177.768 205.692L177.779 205.702L179.261 207.185C179.142 207.276 179.023 207.366 178.911 207.475L178.701 207.667Z" fill="#5109C9" stroke="#5109C9" stroke-width="0.0648043" stroke-miterlimit="10"/>
<path d="M175.342 207.017V211.885C175.342 212.4 175.135 212.849 174.808 213.191C174.463 213.518 174.017 213.725 173.502 213.725H145.843C145.345 213.725 144.879 213.518 144.537 213.191C144.21 212.846 144.003 212.4 144.003 211.885V174.835C144.003 174.319 144.21 173.855 144.537 173.528C144.881 173.183 145.345 172.979 145.843 172.979H173.502C174.017 172.979 174.466 173.186 174.808 173.528C175.135 173.855 175.342 174.319 175.342 174.835V188.731H174.189V174.835C174.189 174.645 174.119 174.456 173.981 174.337C173.862 174.218 173.688 174.13 173.499 174.13H145.841C145.651 174.13 145.48 174.215 145.358 174.337H145.34C145.221 174.456 145.151 174.63 145.151 174.835V211.885C145.151 212.074 145.221 212.245 145.34 212.382H145.358C145.478 212.502 145.651 212.572 145.841 212.572H173.499C173.688 212.572 173.859 212.502 173.981 212.364C174.119 212.245 174.189 212.071 174.189 211.882V207.014H175.342V207.017Z" fill="#5109C9" stroke="#5109C9" stroke-width="0.0648043" stroke-miterlimit="10"/>
<path d="M148.889 179.752C148.562 179.752 148.303 179.493 148.303 179.166C148.303 178.858 148.562 178.599 148.889 178.599H170.459C170.785 178.599 171.044 178.858 171.044 179.166C171.044 179.493 170.785 179.752 170.459 179.752H148.889Z" fill="#5109C9" stroke="#5109C9" stroke-width="0.0648043" stroke-miterlimit="10"/>
<path d="M148.889 183.796C148.562 183.796 148.303 183.537 148.303 183.228C148.303 182.902 148.562 182.642 148.889 182.642H170.459C170.785 182.642 171.044 182.902 171.044 183.228C171.044 183.537 170.785 183.796 170.459 183.796H148.889Z" fill="#5109C9" stroke="#5109C9" stroke-width="0.0648043" stroke-miterlimit="10"/>
<path d="M148.889 187.855C148.562 187.855 148.303 187.596 148.303 187.269C148.303 186.961 148.562 186.702 148.889 186.702H157.282C157.609 186.702 157.868 186.961 157.868 187.269C157.868 187.596 157.609 187.855 157.282 187.855H148.889Z" fill="#5109C9" stroke="#5109C9" stroke-width="0.0648043" stroke-miterlimit="10"/>
<path d="M148.889 191.915C148.562 191.915 148.303 191.655 148.303 191.329C148.303 191.02 148.562 190.743 148.889 190.743H154.755C155.064 190.743 155.323 191.018 155.323 191.329C155.323 191.655 155.064 191.915 154.755 191.915H148.889Z" fill="#5109C9" stroke="#5109C9" stroke-width="0.0648043" stroke-miterlimit="10"/>
<path d="M148.889 195.956C148.562 195.956 148.303 195.696 148.303 195.388C148.303 195.061 148.562 194.802 148.889 194.802H153.791C154.117 194.802 154.377 195.061 154.377 195.388C154.377 195.696 154.117 195.956 153.791 195.956H148.889Z" fill="#5109C9" stroke="#5109C9" stroke-width="0.0648043" stroke-miterlimit="10"/>
<path d="M148.889 200.015C148.562 200.015 148.303 199.756 148.303 199.429C148.303 199.121 148.562 198.862 148.889 198.862H154.066C154.374 198.862 154.633 199.121 154.633 199.429C154.633 199.756 154.374 200.015 154.066 200.015H148.889Z" fill="#5109C9" stroke="#5109C9" stroke-width="0.0648043" stroke-miterlimit="10"/>
<path d="M148.889 204.056C148.562 204.056 148.303 203.797 148.303 203.489C148.303 203.162 148.562 202.903 148.889 202.903H155.649C155.958 202.903 156.217 203.162 156.217 203.489C156.217 203.797 155.958 204.056 155.649 204.056H148.889Z" fill="#5109C9" stroke="#5109C9" stroke-width="0.0648043" stroke-miterlimit="10"/>
<path d="M148.889 208.116C148.562 208.116 148.303 207.856 148.303 207.53C148.303 207.221 148.562 206.962 148.889 206.962H159.26C159.587 206.962 159.846 207.221 159.846 207.53C159.846 207.856 159.587 208.116 159.26 208.116H148.889Z" fill="#5109C9" stroke="#5109C9" stroke-width="0.0648043" stroke-miterlimit="10"/>
<path d="M167.547 203.476C171.398 203.476 174.52 200.355 174.52 196.505C174.52 192.656 171.398 189.535 167.547 189.535C163.696 189.535 160.574 192.656 160.574 196.505C160.574 200.355 163.696 203.476 167.547 203.476Z" fill="#67DC7A"/>
<path fill-rule="evenodd" clip-rule="evenodd" d="M355.833 181.053C353.624 181.053 351.839 182.842 351.839 185.051C351.839 187.259 353.624 189.05 355.833 189.05C358.042 189.05 359.835 187.259 359.835 185.051C359.835 182.842 358.042 181.053 355.833 181.053ZM355.833 179.838C358.716 179.838 361.051 182.171 361.051 185.051C361.051 187.93 358.716 190.266 355.833 190.266C352.951 190.266 350.623 187.93 350.623 185.051C350.623 182.171 352.956 179.838 355.833 179.838ZM357.209 177.131L356.738 175.903H354.931L354.457 177.131C354.384 177.318 354.226 177.458 354.029 177.505C353.23 177.694 352.471 178.01 351.771 178.44C351.6 178.547 351.387 178.56 351.206 178.479L350.003 177.945L348.725 179.221L349.262 180.423C349.345 180.608 349.329 180.82 349.223 180.991C348.793 181.691 348.476 182.453 348.285 183.254C348.238 183.449 348.098 183.609 347.911 183.679L346.685 184.151V185.955L347.911 186.427C348.098 186.5 348.238 186.658 348.285 186.852C348.474 187.65 348.793 188.415 349.223 189.112C349.327 189.284 349.342 189.496 349.262 189.68L348.725 190.883L350.003 192.158L351.206 191.624C351.387 191.544 351.6 191.557 351.771 191.661C352.471 192.088 353.23 192.407 354.034 192.599C354.231 192.646 354.389 192.786 354.462 192.972L354.934 194.198H356.74L357.212 192.972C357.282 192.786 357.443 192.646 357.637 192.599C358.436 192.41 359.2 192.093 359.895 191.663C360.066 191.557 360.279 191.544 360.463 191.624L361.665 192.158L362.943 190.883L362.412 189.68C362.329 189.496 362.342 189.286 362.446 189.115C362.876 188.415 363.192 187.653 363.384 186.855C363.431 186.66 363.571 186.5 363.757 186.427L364.983 185.955V184.151L363.757 183.679C363.571 183.607 363.431 183.446 363.384 183.252C363.195 182.451 362.881 181.688 362.448 180.991C362.339 180.82 362.329 180.608 362.409 180.426L362.941 179.223L361.663 177.948L360.46 178.482C360.276 178.562 360.066 178.549 359.895 178.443C359.195 178.013 358.43 177.697 357.632 177.507C357.438 177.461 357.277 177.321 357.207 177.134L357.209 177.131ZM358.233 176.403C358.936 176.597 359.618 176.88 360.255 177.24L361.551 176.662C361.782 176.561 362.052 176.61 362.231 176.789L364.097 178.656C364.273 178.834 364.325 179.101 364.224 179.332L363.651 180.631C364.011 181.269 364.294 181.948 364.488 182.655L365.813 183.166C366.046 183.257 366.202 183.482 366.202 183.734V186.373C366.202 186.624 366.046 186.849 365.813 186.94L364.488 187.451C364.291 188.156 364.009 188.835 363.651 189.473L364.224 190.771C364.325 191.002 364.276 191.269 364.097 191.448L362.231 193.314C362.054 193.493 361.785 193.542 361.557 193.441L360.258 192.866C359.62 193.229 358.941 193.509 358.236 193.703L357.725 195.028C357.635 195.264 357.409 195.417 357.158 195.417H354.516C354.265 195.417 354.042 195.261 353.949 195.028L353.438 193.703C352.73 193.506 352.054 193.224 351.413 192.863L350.115 193.439C349.887 193.54 349.617 193.491 349.441 193.312L347.574 191.445C347.393 191.267 347.346 190.997 347.447 190.769C347.447 190.769 348.023 189.47 348.023 189.473C347.663 188.835 347.38 188.156 347.183 187.451L345.858 186.94C345.625 186.849 345.47 186.624 345.47 186.373V183.734C345.47 183.482 345.625 183.257 345.858 183.166L347.183 182.655C347.38 181.948 347.663 181.269 348.023 180.631L347.447 179.332C347.346 179.101 347.393 178.832 347.574 178.656L349.441 176.789C349.617 176.61 349.887 176.561 350.115 176.662L351.413 177.24C352.051 176.877 352.73 176.597 353.438 176.403L353.949 175.076C354.039 174.84 354.265 174.687 354.516 174.687H357.158C357.409 174.687 357.632 174.843 357.725 175.076L358.236 176.403H358.233ZM355.805 202.644H359.304V197.747C359.304 197.41 359.576 197.138 359.913 197.138C360.25 197.138 360.522 197.41 360.522 197.747V203.253C360.522 203.59 360.25 203.862 359.913 203.862H355.805L356.294 204.536C356.491 204.808 356.432 205.189 356.157 205.386C355.885 205.583 355.504 205.523 355.307 205.251L354.114 203.613C353.959 203.401 353.959 203.11 354.114 202.898L355.307 201.259C355.504 200.987 355.882 200.928 356.157 201.125C356.429 201.322 356.489 201.703 356.294 201.975L355.805 202.649V202.644ZM335.801 184.711V180.963C335.801 180.626 336.073 180.353 336.41 180.353H341.729C342.066 180.353 342.338 180.626 342.338 180.963C342.338 181.3 342.066 181.572 341.729 181.572H337.019V184.714L337.693 184.224C337.963 184.027 338.346 184.086 338.543 184.358C338.74 184.631 338.681 185.012 338.406 185.209L336.768 186.398C336.555 186.554 336.267 186.554 336.052 186.398L334.414 185.209C334.142 185.012 334.082 184.631 334.277 184.358C334.476 184.086 334.857 184.027 335.129 184.224L335.801 184.714V184.711ZM334.292 208.971C334.629 208.971 334.901 209.243 334.901 209.58C334.901 209.917 334.629 210.189 334.292 210.189H331.998C331.661 210.189 331.389 209.917 331.389 209.58C331.389 209.243 331.661 208.971 331.998 208.971H334.292ZM343.163 208.624C343.691 208.624 344.119 209.051 344.119 209.58C344.119 210.109 343.691 210.537 343.163 210.537C342.634 210.537 342.206 210.109 342.206 209.58C342.206 209.051 342.634 208.624 343.163 208.624ZM340.775 208.971C341.112 208.971 341.384 209.243 341.384 209.58C341.384 209.917 341.112 210.189 340.775 210.189H336.2C335.863 210.189 335.591 209.917 335.591 209.58C335.591 209.243 335.863 208.971 336.2 208.971H340.775ZM343.163 200.782C343.691 200.782 344.119 201.21 344.119 201.739C344.119 202.268 343.691 202.695 343.163 202.695C342.634 202.695 342.206 202.268 342.206 201.739C342.206 201.21 342.634 200.782 343.163 200.782ZM340.775 201.13C341.112 201.13 341.384 201.402 341.384 201.739C341.384 202.076 341.112 202.348 340.775 202.348H336.2C335.863 202.348 335.591 202.076 335.591 201.739C335.591 201.402 335.863 201.13 336.2 201.13H340.775ZM334.292 201.13C334.629 201.13 334.901 201.402 334.901 201.739C334.901 202.076 334.629 202.348 334.292 202.348H331.998C331.661 202.348 331.389 202.076 331.389 201.739C331.389 201.402 331.661 201.13 331.998 201.13H334.292ZM340.775 193.288C341.112 193.288 341.384 193.561 341.384 193.898C341.384 194.235 341.112 194.507 340.775 194.507H336.2C335.863 194.507 335.591 194.235 335.591 193.898C335.591 193.561 335.863 193.288 336.2 193.288H340.775ZM334.292 193.288C334.629 193.288 334.901 193.561 334.901 193.898C334.901 194.235 334.629 194.507 334.292 194.507H331.998C331.661 194.507 331.389 194.235 331.389 193.898C331.389 193.561 331.661 193.288 331.998 193.288H334.292ZM343.163 192.941C343.691 192.941 344.119 193.369 344.119 193.898C344.119 194.426 343.691 194.854 343.163 194.854C342.634 194.854 342.206 194.426 342.206 193.898C342.206 193.369 342.634 192.941 343.163 192.941ZM345.28 207.981H329.893C329.841 207.981 329.795 208.002 329.761 208.038C329.722 208.074 329.704 208.123 329.704 208.173V210.993C329.704 211.045 329.722 211.091 329.761 211.128C329.795 211.164 329.844 211.185 329.893 211.185H345.28C345.332 211.185 345.379 211.164 345.412 211.128C345.446 211.091 345.47 211.042 345.47 210.993V208.173C345.47 208.121 345.446 208.074 345.412 208.038C345.379 208.002 345.33 207.981 345.28 207.981ZM331.855 206.763H343.313V204.554H331.855V206.763ZM329.893 203.338H345.28C345.332 203.338 345.379 203.318 345.412 203.281C345.446 203.245 345.47 203.196 345.47 203.146V200.326C345.47 200.274 345.446 200.228 345.412 200.191C345.379 200.155 345.33 200.134 345.28 200.134H329.893C329.841 200.134 329.795 200.155 329.761 200.191C329.722 200.228 329.704 200.277 329.704 200.326V203.146C329.704 203.198 329.722 203.245 329.761 203.281C329.795 203.318 329.844 203.338 329.893 203.338ZM331.855 198.921H343.313V196.715H331.855V198.921ZM329.893 195.497H345.28C345.332 195.497 345.379 195.476 345.412 195.44C345.446 195.404 345.47 195.354 345.47 195.305V192.485C345.47 192.433 345.446 192.386 345.412 192.35C345.379 192.314 345.33 192.293 345.28 192.293H329.893C329.841 192.293 329.795 192.314 329.761 192.35C329.722 192.386 329.704 192.436 329.704 192.485V195.305C329.704 195.357 329.722 195.404 329.761 195.44C329.795 195.476 329.844 195.497 329.893 195.497ZM330.64 196.715H329.893C329.522 196.715 329.165 196.568 328.898 196.303C328.636 196.039 328.486 195.681 328.486 195.308V192.487C328.486 192.114 328.633 191.756 328.898 191.492C329.165 191.228 329.522 191.08 329.893 191.08H345.28C345.651 191.08 346.009 191.228 346.276 191.492C346.537 191.756 346.688 192.114 346.688 192.487V195.308C346.688 195.681 346.54 196.039 346.276 196.303C346.009 196.568 345.651 196.715 345.28 196.715H344.534V198.921H345.28C345.651 198.921 346.009 199.069 346.276 199.333C346.537 199.598 346.688 199.956 346.688 200.329V203.149C346.688 203.522 346.54 203.88 346.276 204.144C346.009 204.409 345.651 204.557 345.28 204.557H344.534V206.765H345.28C345.651 206.765 346.009 206.913 346.276 207.177C346.537 207.442 346.688 207.799 346.688 208.173V210.993C346.688 211.366 346.54 211.724 346.276 211.988C346.009 212.253 345.651 212.401 345.28 212.401H329.893C329.522 212.401 329.165 212.253 328.898 211.988C328.636 211.724 328.486 211.366 328.486 210.993V208.173C328.486 207.799 328.633 207.442 328.898 207.177C329.165 206.913 329.522 206.765 329.893 206.765H330.64V204.557H329.893C329.522 204.557 329.165 204.409 328.898 204.144C328.636 203.88 328.486 203.522 328.486 203.149V200.329C328.486 199.956 328.633 199.598 328.898 199.333C329.165 199.069 329.522 198.921 329.893 198.921H330.64V196.715Z" fill="white"/>
<path d="M97.2091 192.379C97.2091 197.744 95.8586 202.797 93.4764 207.214C88.1832 217.035 77.7989 223.71 65.8542 223.71C53.9095 223.71 42.5428 216.387 37.514 205.796C35.5802 201.729 34.4993 197.179 34.4993 192.379C34.4993 187.578 35.5569 183.122 37.4569 179.088C42.4572 168.429 53.2925 161.05 65.8542 161.05C78.4159 161.05 89.8525 168.847 94.6558 179.985C96.2993 183.786 97.2091 187.977 97.2091 192.379Z" fill="white"/>
<path d="M81.3528 195.121C73.7318 200.238 68.0446 191.808 68.0446 191.808C65.3513 188.125 63.4227 191.933 63.4227 191.933C62.0048 195.378 59.9622 195.064 58.7568 194.473C58.1502 194.175 57.8625 193.465 58.0517 192.814L58.9616 189.693C59.3608 188.324 60.3432 187.202 61.6497 186.627L65.0869 185.113C66.3182 184.571 67.451 184.695 68.9674 185.004L77.9311 187.127L81.3502 195.121H81.3528Z" stroke="#262626" stroke-width="0.777652" stroke-miterlimit="10"/>
<path d="M83.245 199.546L77.3426 201.423L73.6436 196.269C73.6436 196.269 77.9621 198.058 81.3527 195.121L83.245 199.546Z" stroke="#262626" stroke-width="0.777652" stroke-miterlimit="10"/>
<path d="M46.125 182.86L52.818 185.678L46.8845 199.546L40.3367 196.998" stroke="#262626" stroke-width="0.777652" stroke-miterlimit="10"/>
<path d="M84.6242 184.309L77.9338 187.127L83.8647 200.995L90.4152 198.447" stroke="#262626" stroke-width="0.777652" stroke-miterlimit="10"/>
<path d="M73.2055 196.236L78.2939 202.618C78.6827 203.105 78.7942 203.761 78.5868 204.349C78.0736 205.811 76.1917 206.21 75.1289 205.083L68.1404 197.669" stroke="#262626" stroke-width="0.777652" stroke-miterlimit="10" stroke-linecap="round"/>
<path d="M65.0527 201.153L70.9344 207.304C72.5182 208.961 75.3307 208.357 76.0332 206.174C76.0435 206.14 76.0539 206.107 76.0643 206.07" stroke="#262626" stroke-width="0.777652" stroke-miterlimit="10" stroke-linecap="round"/>
<path d="M62.2354 204.046L67.0983 209.448C67.64 210.049 68.384 210.462 69.1902 210.506C70.1078 210.555 71.2691 210.208 72.2463 208.608" stroke="#262626" stroke-width="0.777652" stroke-miterlimit="10" stroke-linecap="round"/>
<path d="M62.5392 186.235C58.1713 185.235 52.8159 185.678 52.8159 185.678" stroke="#262626" stroke-width="0.777652" stroke-miterlimit="10"/>
<path d="M47.9241 197.117C47.9241 197.117 54.6456 201.77 61.9633 208.94L64.2418 211.128C65.385 212.224 67.3394 211.631 67.5883 210.068C67.5909 210.047 67.5935 210.026 67.5987 210.003" stroke="#262626" stroke-width="0.777652" stroke-miterlimit="10"/>
<path d="M51.7838 200.013L51.185 200.681C50.5992 201.335 50.6796 202.345 51.3587 202.903C52.0716 203.486 53.1162 203.403 53.7254 202.714L54.3112 202.053" stroke="#262626" stroke-width="0.777652" stroke-miterlimit="10"/>
<path d="M57.4064 204.702L56.0922 206.135C55.3923 206.9 54.2102 206.967 53.4274 206.288C52.6264 205.596 52.5409 204.383 53.233 203.585L54.4565 202.174" stroke="#262626" stroke-width="0.777652" stroke-miterlimit="10"/>
<path d="M57.4061 204.702L56.5559 205.63C55.8508 206.4 55.8975 207.595 56.6622 208.305C57.4269 209.018 58.6245 208.979 59.3425 208.217L60.2316 207.273" stroke="#262626" stroke-width="0.777652" stroke-miterlimit="10"/>
<path d="M62.8318 209.775L62.3652 210.254C61.6783 210.959 60.5507 210.977 59.8378 210.298C59.1224 209.616 59.0939 208.484 59.7704 207.766L60.1074 207.408" stroke="#262626" stroke-width="0.777652" stroke-miterlimit="10"/>
<path d="M97.2093 191.381C97.2093 196.746 95.8588 201.798 93.4766 206.216L93.2615 206.301L83.8674 183.363L94.6561 178.987C96.2995 182.787 97.2093 186.979 97.2093 191.381Z" fill="#67DC7A"/>
<path d="M46.8873 181.911L37.514 204.798C35.5802 200.731 34.4993 196.181 34.4993 191.381C34.4993 186.58 35.5569 182.124 37.4569 178.091L46.8873 181.911Z" fill="#5109C9"/>
<path d="M97.1261 192.43C97.1261 197.796 95.7756 202.848 93.3934 207.265C88.1002 217.087 77.7159 223.762 65.7712 223.762C53.8264 223.762 42.4598 216.439 37.431 205.847C35.4972 201.78 34.4163 197.231 34.4163 192.43C34.4163 187.63 35.4739 183.174 37.3739 179.14C42.3742 168.481 53.2095 161.101 65.7712 161.101C78.3329 161.101 89.7695 168.899 94.5728 180.037C96.2163 183.837 97.1261 188.029 97.1261 192.43Z" stroke="#010101" stroke-width="1.03687" stroke-miterlimit="10"/>
<g opacity="0.4">
<path d="M163.537 194.004C164.11 193.322 164.831 192.796 165.653 192.464C165.78 192.412 165.925 192.48 165.969 192.612C166.008 192.734 165.948 192.861 165.832 192.907C165.085 193.211 164.429 193.693 163.913 194.318C163.833 194.413 163.693 194.432 163.589 194.359L163.576 194.351C163.465 194.271 163.444 194.113 163.535 194.006L163.537 194.004Z" fill="white"/>
</g>
<g opacity="0.8">
<path d="M171.458 194.318C170.942 193.693 170.286 193.213 169.539 192.907C169.425 192.861 169.366 192.731 169.402 192.614C169.443 192.482 169.589 192.412 169.718 192.464C170.54 192.796 171.263 193.322 171.833 194.004C171.922 194.11 171.903 194.268 171.792 194.349L171.779 194.356C171.678 194.429 171.535 194.413 171.455 194.315L171.458 194.318Z" fill="white"/>
</g>
<g opacity="0.6">
<path d="M166.21 192.534C166.168 192.402 166.244 192.262 166.378 192.231C166.804 192.125 167.244 192.073 167.687 192.073C168.131 192.073 168.569 192.127 168.996 192.231C169.131 192.265 169.206 192.405 169.165 192.534C169.126 192.653 169.004 192.721 168.882 192.692C168.494 192.594 168.094 192.545 167.687 192.545C167.28 192.545 166.881 192.594 166.492 192.692C166.371 192.723 166.249 192.653 166.21 192.534Z" fill="white"/>
</g>
<path d="M172.574 197.14C172.525 196.337 172.281 195.564 171.861 194.883C171.796 194.776 171.822 194.639 171.923 194.566L171.939 194.553C172.05 194.473 172.209 194.502 172.281 194.618C172.75 195.37 173.028 196.22 173.09 197.107C173.1 197.244 172.991 197.361 172.851 197.361H172.81C172.685 197.361 172.579 197.265 172.574 197.138V197.14Z" fill="white"/>
<g opacity="0.2">
<path d="M162.283 197.107C162.345 196.22 162.62 195.37 163.092 194.618C163.164 194.502 163.323 194.471 163.434 194.553L163.45 194.566C163.551 194.639 163.577 194.776 163.512 194.883C163.092 195.567 162.848 196.337 162.799 197.14C162.791 197.265 162.687 197.363 162.563 197.363H162.522C162.384 197.363 162.275 197.247 162.283 197.109V197.107Z" fill="white"/>
</g>
<path d="M167.667 197.91C167.229 197.903 166.869 198.25 166.859 198.688C166.851 199.126 167.198 199.486 167.636 199.497C168.074 199.504 168.435 199.157 168.445 198.719C168.453 198.281 168.105 197.921 167.667 197.91ZM167.644 199.04C167.457 199.038 167.31 198.882 167.312 198.696C167.315 198.509 167.47 198.361 167.657 198.364C167.844 198.367 167.991 198.522 167.989 198.709C167.986 198.895 167.831 199.043 167.644 199.04Z" fill="white"/>
<path d="M168.022 198.177L167.299 198.162L167.595 194.535C167.6 194.463 167.662 194.406 167.735 194.408C167.807 194.408 167.867 194.468 167.869 194.54L168.02 198.177H168.022Z" fill="white"/>
<path d="M238.073 215.35C237.446 215.35 236.893 214.894 236.792 214.257L234.669 200.979C234.615 200.637 234.698 200.295 234.9 200.013C235.105 199.73 235.406 199.546 235.745 199.492L239.597 198.875C239.939 198.82 240.281 198.903 240.564 199.105C240.847 199.31 241.031 199.608 241.085 199.95L243.208 213.227C243.322 213.935 242.837 214.601 242.132 214.715L238.28 215.332C238.21 215.343 238.143 215.348 238.076 215.348L238.073 215.35ZM239.802 199.53C239.768 199.53 239.737 199.533 239.703 199.538L235.851 200.155C235.688 200.181 235.543 200.272 235.442 200.407C235.341 200.541 235.302 200.71 235.33 200.873L237.453 214.15C237.508 214.492 237.832 214.726 238.171 214.671L242.023 214.054C242.366 214 242.599 213.676 242.544 213.336L240.421 200.059C240.372 199.751 240.105 199.53 239.802 199.53Z" fill="#5109C9"/>
<path d="M242.075 214.386H242.078M238.073 215.35C237.446 215.35 236.893 214.894 236.792 214.257L234.669 200.979C234.615 200.637 234.698 200.295 234.9 200.013C235.105 199.73 235.406 199.546 235.745 199.492L239.597 198.875C239.939 198.82 240.281 198.903 240.564 199.105C240.847 199.31 241.031 199.608 241.085 199.95L243.208 213.227C243.322 213.935 242.837 214.601 242.132 214.715L238.28 215.332C238.21 215.343 238.143 215.348 238.076 215.348L238.073 215.35ZM239.802 199.53C239.768 199.53 239.737 199.533 239.703 199.538L235.851 200.155C235.688 200.181 235.543 200.272 235.442 200.407C235.341 200.541 235.302 200.71 235.33 200.873L237.453 214.15C237.508 214.492 237.832 214.726 238.171 214.671L242.023 214.054C242.366 214 242.599 213.676 242.544 213.336L240.421 200.059C240.372 199.751 240.105 199.53 239.802 199.53Z" stroke="#5109C9" stroke-width="0.518435" stroke-miterlimit="10"/>
<path d="M258.45 210.081C258.123 210.081 257.791 210.018 257.475 209.886L253.286 208.149C253.115 208.079 253.035 207.882 253.105 207.711C253.175 207.54 253.372 207.46 253.543 207.53L257.732 209.267C258.608 209.629 259.624 209.282 260.093 208.458C260.358 207.994 260.415 207.457 260.251 206.949C260.088 206.441 259.73 206.037 259.246 205.814L251.137 202.073C249.038 201.104 246.648 201.14 244.579 202.167C243.978 202.465 243.423 202.667 242.879 202.784L241.575 203.061C241.393 203.1 241.214 202.983 241.178 202.802C241.139 202.62 241.256 202.441 241.437 202.405L242.741 202.128C243.229 202.024 243.731 201.84 244.284 201.568C246.536 200.448 249.139 200.412 251.422 201.464L259.528 205.205C260.176 205.503 260.674 206.065 260.892 206.744C261.109 207.424 261.032 208.17 260.679 208.79C260.212 209.609 259.349 210.081 258.452 210.081H258.45Z" fill="#5109C9" stroke="#5109C9" stroke-width="0.518435" stroke-miterlimit="10"/>
<path d="M256.822 214.594C255.643 214.594 254.455 214.355 253.325 213.876L244.494 210.109L242.218 209.801C242.034 209.775 241.907 209.606 241.93 209.422C241.956 209.238 242.124 209.111 242.308 209.134L244.628 209.448C244.657 209.453 244.688 209.461 244.714 209.471L253.587 213.256C256.221 214.378 259.189 214.067 261.529 212.419L269.941 206.503C270.345 206.221 270.602 205.796 270.669 205.306C270.737 204.816 270.599 204.339 270.288 203.958C269.684 203.222 268.619 203.1 267.865 203.683L264.79 206.052C264.645 206.166 264.433 206.138 264.321 205.993C264.207 205.845 264.236 205.635 264.381 205.524L267.455 203.154C268.5 202.351 269.972 202.517 270.807 203.535C271.232 204.054 271.426 204.733 271.336 205.399C271.245 206.065 270.877 206.669 270.327 207.056L261.916 212.971C260.389 214.044 258.613 214.594 256.819 214.594H256.822Z" fill="#5109C9" stroke="#5109C9" stroke-width="0.518435" stroke-miterlimit="10"/>
<path fill-rule="evenodd" clip-rule="evenodd" d="M248.19 188.226C247.804 188.226 247.49 187.912 247.49 187.526C247.49 187.14 247.804 186.826 248.19 186.826H259.453C259.837 186.826 260.153 187.14 260.153 187.526C260.153 187.912 259.837 188.226 259.453 188.226H248.19ZM248.19 184.908C247.804 184.908 247.49 184.594 247.49 184.208C247.49 183.822 247.804 183.508 248.19 183.508H259.453C259.837 183.508 260.153 183.822 260.153 184.208C260.153 184.594 259.837 184.908 259.453 184.908H248.19ZM248.19 181.593C247.804 181.593 247.49 181.279 247.49 180.893C247.49 180.506 247.804 180.193 248.19 180.193H259.453C259.837 180.193 260.153 180.506 260.153 180.893C260.153 181.279 259.837 181.593 259.453 181.593H248.19ZM248.19 178.272C247.804 178.272 247.49 177.958 247.49 177.572C247.49 177.186 247.804 176.872 248.19 176.872H256.275C256.659 176.872 256.975 177.186 256.975 177.572C256.975 177.958 256.659 178.272 256.275 178.272H248.19ZM248.19 194.864C247.804 194.864 247.49 194.551 247.49 194.165C247.49 193.778 247.804 193.465 248.19 193.465H259.453C259.837 193.465 260.153 193.778 260.153 194.165C260.153 194.551 259.837 194.864 259.453 194.864H248.19ZM248.19 191.547C247.804 191.547 247.49 191.233 247.49 190.847C247.49 190.46 247.804 190.147 248.19 190.147H259.453C259.837 190.147 260.153 190.46 260.153 190.847C260.153 191.233 259.837 191.547 259.453 191.547H248.19ZM261.646 175.644L260.951 174.949V175.644H261.646ZM264.63 172.663L263.935 171.968V172.663H264.63ZM259.552 173.961H245.007V197.221H262.634V177.043H260.252C259.865 177.043 259.552 176.73 259.552 176.343V173.961ZM247.991 172.561H260.252C260.433 172.561 260.612 172.634 260.747 172.766L263.829 175.848C263.961 175.981 264.033 176.159 264.033 176.343V194.237H265.623V174.06H263.238C262.851 174.06 262.538 173.746 262.538 173.36V170.975H247.996V172.561H247.991ZM264.031 195.634V197.918C264.031 198.304 263.717 198.618 263.331 198.618H244.307C243.921 198.618 243.607 198.304 243.607 197.918V173.261C243.607 172.875 243.921 172.561 244.307 172.561H246.593V170.275C246.593 169.889 246.907 169.575 247.293 169.575H263.235C263.422 169.575 263.598 169.648 263.73 169.78L266.812 172.865C266.947 172.997 267.02 173.176 267.02 173.36V194.934C267.02 195.321 266.706 195.634 266.32 195.634H264.033H264.031Z" fill="#5109C9"/>
</g>
<defs>
<clipPath id="clip0_739_25039">
<rect width="411" height="302" fill="white" transform="translate(0 0.00488281)"/>
</clipPath>
</defs>
</svg>
