<svg width="181" height="28" viewBox="0 0 181 28" fill="none" xmlns="http://www.w3.org/2000/svg">
<path d="M180.854 4.89233L176.795 19.892H171.715L169.349 10.161L166.903 19.892H161.85L157.764 4.89233H162.36L164.484 15.6179L167.011 4.89233H171.876L174.43 15.5641L176.527 4.89233H180.854Z" fill="#404653"/>
<path d="M149.035 20.107C147.565 20.107 146.239 19.7934 145.057 19.1661C143.892 18.5389 142.969 17.6429 142.288 16.478C141.625 15.3132 141.293 13.9512 141.293 12.3921C141.293 10.8509 141.634 9.49791 142.315 8.33307C142.996 7.1503 143.928 6.24531 145.11 5.61808C146.293 4.99086 147.619 4.67725 149.089 4.67725C150.558 4.67725 151.884 4.99086 153.067 5.61808C154.25 6.24531 155.182 7.1503 155.863 8.33307C156.544 9.49791 156.884 10.8509 156.884 12.3921C156.884 13.9333 156.535 15.2953 155.836 16.478C155.155 17.6429 154.214 18.5389 153.013 19.1661C151.831 19.7934 150.504 20.107 149.035 20.107ZM149.035 16.1286C149.913 16.1286 150.657 15.806 151.266 15.1609C151.893 14.5157 152.207 13.5928 152.207 12.3921C152.207 11.1914 151.902 10.2685 151.293 9.62336C150.702 8.97821 149.967 8.65564 149.089 8.65564C148.193 8.65564 147.449 8.97821 146.858 9.62336C146.266 10.2506 145.971 11.1735 145.971 12.3921C145.971 13.5928 146.257 14.5157 146.831 15.1609C147.422 15.806 148.157 16.1286 149.035 16.1286Z" fill="#404653"/>
<path d="M138.876 0V19.892H134.279V0H138.876Z" fill="#404653"/>
<path d="M131.863 1.02148V4.70419H124.176V8.68258H129.928V12.2578H124.176V19.892H119.579V1.02148H131.863Z" fill="#404653"/>
<path d="M110.686 4.73106C112.406 4.73106 113.786 5.30453 114.825 6.45145C115.865 7.58045 116.385 9.13955 116.385 11.1288V19.892H111.815V11.747C111.815 10.7435 111.555 9.96391 111.035 9.40837C110.516 8.85282 109.817 8.57505 108.939 8.57505C108.06 8.57505 107.361 8.85282 106.842 9.40837C106.322 9.96391 106.062 10.7435 106.062 11.747V19.892H101.466V0H106.062V6.90843C106.528 6.24536 107.164 5.7167 107.971 5.32245C108.777 4.92819 109.682 4.73106 110.686 4.73106Z" fill="#404653"/>
<path d="M84.2759 12.3921C84.2759 10.833 84.5895 9.47103 85.2167 8.30619C85.8619 7.14134 86.7489 6.24531 87.8779 5.61808C89.0249 4.99086 90.3331 4.67725 91.8026 4.67725C93.6842 4.67725 95.2523 5.17007 96.5067 6.1557C97.7791 7.14134 98.6124 8.5302 99.0067 10.3223H94.1143C93.7022 9.17534 92.9047 8.60188 91.7219 8.60188C90.8797 8.60188 90.2076 8.93341 89.7058 9.59648C89.2041 10.2416 88.9532 11.1735 88.9532 12.3921C88.9532 13.6107 89.2041 14.5516 89.7058 15.2146C90.2076 15.8598 90.8797 16.1823 91.7219 16.1823C92.9047 16.1823 93.7022 15.6089 94.1143 14.4619H99.0067C98.6124 16.2182 97.7791 17.5981 96.5067 18.6016C95.2344 19.6052 93.6663 20.107 91.8026 20.107C90.3331 20.107 89.0249 19.7934 87.8779 19.1661C86.7489 18.5389 85.8619 17.6429 85.2167 16.478C84.5895 15.3132 84.2759 13.9512 84.2759 12.3921Z" fill="#404653"/>
<path d="M82.7651 12.1502C82.7651 12.5803 82.7382 13.0283 82.6844 13.4942H72.2814C72.3531 14.4261 72.6488 15.1429 73.1685 15.6447C73.7061 16.1286 74.3602 16.3705 75.1308 16.3705C76.2778 16.3705 77.0752 15.8866 77.5233 14.9189H82.4156C82.1647 15.9046 81.7077 16.7916 81.0447 17.5801C80.3995 18.3687 79.5841 18.9869 78.5985 19.4349C77.6129 19.883 76.5107 20.107 75.2921 20.107C73.8226 20.107 72.5144 19.7934 71.3675 19.1661C70.2206 18.5389 69.3245 17.6429 68.6794 16.478C68.0342 15.3132 67.7117 13.9512 67.7117 12.3921C67.7117 10.833 68.0253 9.47103 68.6525 8.30619C69.2976 7.14134 70.1937 6.24531 71.3406 5.61808C72.4875 4.99086 73.8047 4.67725 75.2921 4.67725C76.7437 4.67725 78.034 4.9819 79.163 5.5912C80.292 6.20051 81.1701 7.06966 81.7973 8.19866C82.4425 9.32767 82.7651 10.6448 82.7651 12.1502ZM78.0609 10.9405C78.0609 10.152 77.7921 9.52479 77.2544 9.05886C76.7168 8.59292 76.0448 8.35995 75.2384 8.35995C74.4678 8.35995 73.8137 8.58396 73.276 9.03198C72.7563 9.47999 72.4338 10.1162 72.3083 10.9405H78.0609Z" fill="#404653"/>
<path d="M66.3186 1.02148V4.70419H61.3187V19.892H56.722V4.70419H51.7222V1.02148H66.3186Z" fill="#404653"/>
<path d="M40.1979 4.67725C41.2553 4.67725 42.1782 4.89229 42.9667 5.32239C43.7731 5.75249 44.3914 6.31699 44.8215 7.0159V4.89229H49.4181V19.865C49.4181 21.2449 49.1404 22.4904 48.5848 23.6015C48.0472 24.7305 47.2139 25.6265 46.0849 26.2896C44.9738 26.9527 43.585 27.2842 41.9183 27.2842C39.6962 27.2842 37.8951 26.7555 36.5152 25.6982C35.1353 24.6588 34.3468 23.2431 34.1497 21.451H38.6926C38.836 22.0245 39.1765 22.4725 39.7141 22.7951C40.2517 23.1356 40.9148 23.3058 41.7033 23.3058C42.6531 23.3058 43.4058 23.028 43.9613 22.4725C44.5348 21.9349 44.8215 21.0657 44.8215 19.865V17.7414C44.3735 18.4403 43.7552 19.0138 42.9667 19.4618C42.1782 19.8919 41.2553 20.107 40.1979 20.107C38.9614 20.107 37.8414 19.7934 36.8378 19.1661C35.8343 18.521 35.0368 17.616 34.4454 16.4511C33.8719 15.2684 33.5852 13.9064 33.5852 12.3652C33.5852 10.824 33.8719 9.47103 34.4454 8.30619C35.0368 7.14134 35.8343 6.24531 36.8378 5.61808C37.8414 4.99086 38.9614 4.67725 40.1979 4.67725ZM44.8215 12.3921C44.8215 11.2452 44.4989 10.3402 43.8538 9.67712C43.2265 9.01405 42.456 8.68252 41.542 8.68252C40.628 8.68252 39.8485 9.01405 39.2033 9.67712C38.5761 10.3223 38.2625 11.2183 38.2625 12.3652C38.2625 13.5121 38.5761 14.4261 39.2033 15.1071C39.8485 15.7702 40.628 16.1017 41.542 16.1017C42.456 16.1017 43.2265 15.7702 43.8538 15.1071C44.4989 14.444 44.8215 13.539 44.8215 12.3921Z" fill="#404653"/>
<path d="M32.0744 12.1502C32.0744 12.5803 32.0475 13.0283 31.9937 13.4942H21.5908C21.6625 14.4261 21.9581 15.1429 22.4778 15.6447C23.0155 16.1286 23.6696 16.3705 24.4402 16.3705C25.5871 16.3705 26.3846 15.8866 26.8326 14.9189H31.7249C31.474 15.9046 31.0171 16.7916 30.354 17.5801C29.7088 18.3687 28.8935 18.9869 27.9078 19.4349C26.9222 19.883 25.8201 20.107 24.6015 20.107C23.132 20.107 21.8237 19.7934 20.6768 19.1661C19.5299 18.5389 18.6339 17.6429 17.9887 16.478C17.3436 15.3132 17.021 13.9512 17.021 12.3921C17.021 10.833 17.3346 9.47103 17.9618 8.30619C18.607 7.14134 19.503 6.24531 20.6499 5.61808C21.7969 4.99086 23.114 4.67725 24.6015 4.67725C26.053 4.67725 27.3433 4.9819 28.4723 5.5912C29.6013 6.20051 30.4794 7.06966 31.1067 8.19866C31.7518 9.32767 32.0744 10.6448 32.0744 12.1502ZM27.3702 10.9405C27.3702 10.152 27.1014 9.52479 26.5638 9.05886C26.0261 8.59292 25.3541 8.35995 24.5477 8.35995C23.7771 8.35995 23.123 8.58396 22.5854 9.03198C22.0657 9.47999 21.7431 10.1162 21.6177 10.9405H27.3702Z" fill="#404653"/>
<path d="M10.0226 19.892L6.09795 12.7685H4.99583V19.892H0.39917V1.02148H8.11403C9.60145 1.02148 10.8649 1.28133 11.9043 1.80103C12.9616 2.32073 13.7501 3.03756 14.2698 3.95152C14.7895 4.84755 15.0493 5.85111 15.0493 6.96219C15.0493 8.21664 14.6909 9.33669 13.9741 10.3223C13.2752 11.308 12.2358 12.0069 10.8559 12.419L15.2106 19.892H10.0226ZM4.99583 9.51589H7.84522C8.68749 9.51589 9.31472 9.30981 9.72689 8.89763C10.157 8.48545 10.372 7.90303 10.372 7.15036C10.372 6.43353 10.157 5.86903 9.72689 5.45686C9.31472 5.04468 8.68749 4.83859 7.84522 4.83859H4.99583V9.51589Z" fill="#404653"/>
</svg>
